<svg width="26" height="22" viewBox="0 0 26 22" fill="none" xmlns="http://www.w3.org/2000/svg">
<path d="M0 21.2727V18.9091H26V21.2727H0ZM3.54545 17.7273C2.89545 17.7273 2.33882 17.4956 1.87555 17.0324C1.41227 16.5691 1.18103 16.0129 1.18182 15.3636V9.45455H7.53409L9.57273 13.5318C9.67121 13.7288 9.81421 13.8864 10.0017 14.0045C10.1892 14.1227 10.3909 14.1818 10.6068 14.1818C10.8235 14.1818 11.0303 14.1326 11.2273 14.0341C11.4242 13.9356 11.572 13.7879 11.6705 13.5909L15.3045 7.23864L16.0727 8.80455C16.1712 9.02121 16.3189 9.18391 16.5159 9.29264C16.7129 9.40137 16.9197 9.45534 17.1364 9.45455H24.8182V15.3636C24.8182 16.0136 24.5865 16.5699 24.1233 17.0324C23.66 17.4949 23.1038 17.7265 22.4545 17.7273H3.54545ZM10.725 10.4886L9.33636 7.74091C9.23788 7.54394 9.09015 7.38637 8.89318 7.26818C8.69621 7.15 8.48939 7.09091 8.27273 7.09091H1.18182V2.36364C1.18182 1.71364 1.41345 1.157 1.87673 0.693729C2.34 0.230456 2.89624 -0.000785872 3.54545 2.00648e-06H22.4545C23.1045 2.00648e-06 23.6612 0.231638 24.1245 0.694911C24.5877 1.15818 24.819 1.71443 24.8182 2.36364V7.09091H17.875L16.4273 4.19546C16.3288 3.97879 16.1811 3.81609 15.9841 3.70737C15.7871 3.59864 15.5803 3.54467 15.3636 3.54546C15.147 3.54546 14.95 3.59982 14.7727 3.70855C14.5955 3.81727 14.4576 3.95988 14.3591 4.13637L10.725 10.4886Z" fill="#7971EA"/>
</svg>
