<svg width="199" height="96" viewBox="0 0 199 96" fill="none" xmlns="http://www.w3.org/2000/svg">
<path d="M180.728 33.904C184.909 33.904 188.237 35.2693 190.712 38C193.229 40.688 194.488 44.4 194.488 49.136V70H183.608V50.608C183.608 48.2187 182.989 46.3627 181.752 45.04C180.515 43.7173 178.851 43.056 176.76 43.056C174.669 43.056 173.005 43.7173 171.768 45.04C170.531 46.3627 169.912 48.2187 169.912 50.608V70H158.968V34.288H169.912V39.024C171.021 37.4453 172.515 36.208 174.392 35.312C176.269 34.3733 178.381 33.904 180.728 33.904Z" fill="#7971EA"/>
<path d="M2.112 47.472C2.112 43.0347 3.072 39.088 4.992 35.632C6.912 32.1333 9.57867 29.424 12.992 27.504C16.448 25.5413 20.352 24.56 24.704 24.56C30.0373 24.56 34.6027 25.968 38.4 28.784C42.1973 31.6 44.736 35.44 46.016 40.304H33.984C33.088 38.4267 31.808 36.9973 30.144 36.016C28.5227 35.0347 26.6667 34.544 24.576 34.544C21.2053 34.544 18.4747 35.7173 16.384 38.064C14.2933 40.4107 13.248 43.5467 13.248 47.472C13.248 51.3973 14.2933 54.5333 16.384 56.88C18.4747 59.2267 21.2053 60.4 24.576 60.4C26.6667 60.4 28.5227 59.9093 30.144 58.928C31.808 57.9467 33.088 56.5173 33.984 54.64H46.016C44.736 59.504 42.1973 63.344 38.4 66.16C34.6027 68.9333 30.0373 70.32 24.704 70.32C20.352 70.32 16.448 69.36 12.992 67.44C9.57867 65.4773 6.912 62.768 4.992 59.312C3.072 55.856 2.112 51.9093 2.112 47.472ZM50.542 52.08C50.542 48.4107 51.2247 45.1893 52.59 42.416C53.998 39.6427 55.8967 37.5093 58.286 36.016C60.6753 34.5227 63.342 33.776 66.286 33.776C68.8033 33.776 71.0007 34.288 72.878 35.312C74.798 36.336 76.27 37.68 77.294 39.344V34.288H88.238V70H77.294V64.944C76.2273 66.608 74.734 67.952 72.814 68.976C70.9367 70 68.7393 70.512 66.222 70.512C63.3207 70.512 60.6753 69.7653 58.286 68.272C55.8967 66.736 53.998 64.5813 52.59 61.808C51.2247 58.992 50.542 55.7493 50.542 52.08ZM77.294 52.144C77.294 49.4133 76.526 47.2587 74.99 45.68C73.4967 44.1013 71.662 43.312 69.486 43.312C67.31 43.312 65.454 44.1013 63.918 45.68C62.4247 47.216 61.678 49.3493 61.678 52.08C61.678 54.8107 62.4247 56.9867 63.918 58.608C65.454 60.1867 67.31 60.976 69.486 60.976C71.662 60.976 73.4967 60.1867 74.99 58.608C76.526 57.0293 77.294 54.8747 77.294 52.144ZM107.1 40.24C108.38 38.2773 109.98 36.7413 111.9 35.632C113.82 34.48 115.953 33.904 118.3 33.904V45.488H115.292C112.561 45.488 110.513 46.0853 109.148 47.28C107.782 48.432 107.1 50.48 107.1 53.424V70H96.1555V34.288H107.1V40.24ZM129.035 30.576C127.115 30.576 125.536 30.0213 124.299 28.912C123.104 27.76 122.507 26.352 122.507 24.688C122.507 22.9813 123.104 21.5733 124.299 20.464C125.536 19.312 127.115 18.736 129.035 18.736C130.912 18.736 132.448 19.312 133.643 20.464C134.88 21.5733 135.499 22.9813 135.499 24.688C135.499 26.352 134.88 27.76 133.643 28.912C132.448 30.0213 130.912 30.576 129.035 30.576ZM134.475 34.288V70H123.531V34.288H134.475Z" fill="#393E46"/>
<path d="M144.086 34C143.991 34 143.791 34.0811 143.533 34.3639C143.274 34.6471 142.986 35.102 142.737 35.6263C142.239 36.6752 141.914 38.0569 141.914 38.6535C141.914 39.2501 142.262 41.2076 142.79 42.7646C143.054 43.5432 143.364 44.2521 143.643 44.7C143.923 45.1478 144.133 45.2161 144.085 45.2161H150.127C150.079 45.2161 150.289 45.1478 150.569 44.6999C150.849 44.2521 151.158 43.5432 151.422 42.7645C151.95 41.2076 152.297 39.2501 152.297 38.6535C152.297 38.0569 151.973 36.6752 151.475 35.6263C151.226 35.102 150.938 34.6471 150.679 34.3639C150.421 34.0811 150.221 34 150.126 34H144.086ZM144.767 47.3638L143.969 51.9016L149.913 50.0235L149.445 47.3638H144.767ZM150.281 52.1208L143.557 54.2458L142.548 59.9875L151.185 57.2581L150.281 52.1208ZM151.553 59.3551L142.136 62.3316L141.126 68.0732L152.456 64.4924L151.553 59.3551ZM152.825 66.5897L140.714 70.417L139.705 76.1587L153.728 71.7272L152.825 66.5897ZM154.097 73.8245L139.293 78.503L139 80.1687L142.322 82.9683L155 78.9618L154.097 73.8245ZM153.428 81.6721L144.233 84.5782L147.106 87L153.428 81.6721Z" fill="#7971EA"/>
<rect x="122" y="16" width="14" height="15" fill="#EEEEEE"/>
<path d="M129 17C126.236 17 124 19.191 124 21.9C124 25.575 129 31 129 31C129 31 134 25.575 134 21.9C134 19.191 131.764 17 129 17ZM129 23.65C128.526 23.65 128.072 23.4656 127.737 23.1374C127.402 22.8092 127.214 22.3641 127.214 21.9C127.214 21.4359 127.402 20.9908 127.737 20.6626C128.072 20.3344 128.526 20.15 129 20.15C129.474 20.15 129.928 20.3344 130.263 20.6626C130.598 20.9908 130.786 21.4359 130.786 21.9C130.786 22.3641 130.598 22.8092 130.263 23.1374C129.928 23.4656 129.474 23.65 129 23.65Z" fill="#393E46"/>
</svg>
