<svg width="55" height="55" viewBox="0 0 55 55" fill="none" xmlns="http://www.w3.org/2000/svg">
<path d="M13.75 43.5416V45.8333C13.75 46.4826 13.53 47.0272 13.09 47.4672C12.65 47.9072 12.1061 48.1264 11.4583 48.1249H9.16667C8.51737 48.1249 7.97272 47.9049 7.53272 47.4649C7.09272 47.0249 6.87348 46.481 6.87501 45.8333V27.4999L11.6875 13.7499C11.9167 13.0624 12.3269 12.5086 12.9181 12.0885C13.5094 11.6683 14.1686 11.4583 14.8958 11.4583H40.1042C40.8299 11.4583 41.4891 11.6683 42.0819 12.0885C42.6747 12.5086 43.0849 13.0624 43.3125 13.7499L48.125 27.4999V45.8333C48.125 46.4826 47.9058 47.0272 47.4673 47.4672C47.0288 47.9072 46.4842 48.1264 45.8333 48.1249H43.5417C42.8924 48.1249 42.3477 47.9049 41.9077 47.4649C41.4677 47.0249 41.2485 46.481 41.25 45.8333V43.5416H13.75ZM13.2917 22.9166H41.7083L39.3021 16.0416H15.6979L13.2917 22.9166ZM17.1875 36.6666C18.1424 36.6666 18.9544 36.332 19.6235 35.6628C20.2927 34.9937 20.6265 34.1824 20.625 33.2291C20.625 32.2742 20.2904 31.4622 19.6213 30.793C18.9521 30.1239 18.1408 29.7901 17.1875 29.7916C16.2326 29.7916 15.4206 30.1262 14.7515 30.7953C14.0823 31.4645 13.7485 32.2758 13.75 33.2291C13.75 34.1839 14.0846 34.996 14.7538 35.6651C15.4229 36.3343 16.2342 36.6681 17.1875 36.6666ZM37.8125 36.6666C38.7674 36.6666 39.5794 36.332 40.2485 35.6628C40.9177 34.9937 41.2515 34.1824 41.25 33.2291C41.25 32.2742 40.9154 31.4622 40.2463 30.793C39.5771 30.1239 38.7658 29.7901 37.8125 29.7916C36.8576 29.7916 36.0456 30.1262 35.3765 30.7953C34.7073 31.4645 34.3735 32.2758 34.375 33.2291C34.375 34.1839 34.7096 34.996 35.3788 35.6651C36.0479 36.3343 36.8592 36.6681 37.8125 36.6666Z" fill="#3A58B7"/>
</svg>
