<svg width="55" height="55" viewBox="0 0 55 55" fill="none" xmlns="http://www.w3.org/2000/svg">
<path d="M48.7695 38.8964L49.4688 37.3291C51.1088 33.6645 51.8057 29.6479 51.4963 25.6451C51.1868 21.6423 49.8807 17.7805 47.6969 14.4116C45.5132 11.0427 42.5212 8.27378 38.9935 6.35701C35.4659 4.44025 31.5147 3.4366 27.5 3.4375H25.7812V28.614L48.7695 38.8964Z" fill="#3A58B7"/>
<path d="M22.3437 7.13928V30.8419L44.8357 40.9041C42.8342 44.1601 40.0321 46.8491 36.6965 48.7149C33.361 50.5807 29.6031 51.561 25.7812 51.5625C13.461 51.5625 3.43746 41.539 3.43746 29.2188C3.43746 18.0673 11.6499 8.79788 22.3437 7.13928Z" fill="#3A58B7"/>
</svg>
