<svg width="27" height="27" viewBox="0 0 27 27" fill="none" xmlns="http://www.w3.org/2000/svg">
<path opacity="0.16" d="M1.83337 22.2498C1.83337 20.7027 2.44796 19.219 3.54192 18.125C4.63588 17.0311 6.11961 16.4165 7.66671 16.4165H19.3334C20.8805 16.4165 22.3642 17.0311 23.4582 18.125C24.5521 19.219 25.1667 20.7027 25.1667 22.2498C25.1667 23.0234 24.8594 23.7653 24.3124 24.3122C23.7655 24.8592 23.0236 25.1665 22.25 25.1665H4.75004C3.97649 25.1665 3.23463 24.8592 2.68765 24.3122C2.14066 23.7653 1.83337 23.0234 1.83337 22.2498Z" fill="#FFFBFE"/>
<path d="M1.83337 22.2498C1.83337 20.7027 2.44796 19.219 3.54192 18.125C4.63588 17.0311 6.11961 16.4165 7.66671 16.4165H19.3334C20.8805 16.4165 22.3642 17.0311 23.4582 18.125C24.5521 19.219 25.1667 20.7027 25.1667 22.2498C25.1667 23.0234 24.8594 23.7653 24.3124 24.3122C23.7655 24.8592 23.0236 25.1665 22.25 25.1665H4.75004C3.97649 25.1665 3.23463 24.8592 2.68765 24.3122C2.14066 23.7653 1.83337 23.0234 1.83337 22.2498Z" stroke="#FFFBFE" stroke-width="2" stroke-linejoin="round"/>
<path d="M13.5 10.5833C15.9162 10.5833 17.875 8.6245 17.875 6.20825C17.875 3.79201 15.9162 1.83325 13.5 1.83325C11.0838 1.83325 9.125 3.79201 9.125 6.20825C9.125 8.6245 11.0838 10.5833 13.5 10.5833Z" stroke="#FFFBFE" stroke-width="2"/>
</svg>
