<svg width="22" height="39" viewBox="0 0 22 39" fill="none" xmlns="http://www.w3.org/2000/svg">
<path d="M8.5 37.25L16 29.75L11.3125 9.125L13.1744 4.15812C13.2807 3.87451 13.3167 3.56936 13.2794 3.26879C13.242 2.96822 13.1324 2.68117 12.9599 2.4322C12.7874 2.18323 12.5572 1.97975 12.2889 1.83918C12.0206 1.6986 11.7223 1.62511 11.4194 1.625H5.58062C5.27774 1.62511 4.97939 1.6986 4.7111 1.83918C4.44282 1.97975 4.21258 2.18323 4.04009 2.4322C3.8676 2.68117 3.75799 2.96822 3.72064 3.26879C3.68329 3.56936 3.71931 3.87451 3.82562 4.15812L5.6875 9.125L1 29.75L8.5 37.25Z" stroke="white" stroke-width="2" stroke-linecap="round" stroke-linejoin="round"/>
<path d="M5.6875 9.125H11.3125L20.6875 19.4375" stroke="white" stroke-width="2" stroke-linecap="round" stroke-linejoin="round"/>
</svg>
