<svg width="27" height="20" viewBox="0 0 27 20" fill="none" xmlns="http://www.w3.org/2000/svg">
<path d="M15.5556 8.88889H23.3333V3.33333H15.5556V8.88889ZM19.4444 7.5L16.6667 5.55556V4.44445L19.4444 6.38889L22.2222 4.44445V5.55556L19.4444 7.5ZM2.22222 20C1.61111 20 1.08778 19.7822 0.652224 19.3467C0.216669 18.9111 -0.000738854 18.3881 1.88644e-06 17.7778V2.22222C1.88644e-06 1.61111 0.21778 1.08778 0.653335 0.652224C1.08889 0.216668 1.61185 -0.000738854 2.22222 1.88644e-06H24.4444C25.0556 1.88644e-06 25.5789 0.21778 26.0144 0.653335C26.45 1.08889 26.6674 1.61185 26.6667 2.22222V17.7778C26.6667 18.3889 26.4489 18.9122 26.0133 19.3478C25.5778 19.7833 25.0548 20.0007 24.4444 20H2.22222ZM10 12.2222C10.9259 12.2222 11.713 11.8981 12.3611 11.25C13.0093 10.6019 13.3333 9.81482 13.3333 8.88889C13.3333 7.96296 13.0093 7.17593 12.3611 6.52778C11.713 5.87963 10.9259 5.55556 10 5.55556C9.07407 5.55556 8.28704 5.87963 7.63889 6.52778C6.99074 7.17593 6.66667 7.96296 6.66667 8.88889C6.66667 9.81482 6.99074 10.6019 7.63889 11.25C8.28704 11.8981 9.07407 12.2222 10 12.2222ZM2.33333 17.7778H17.6667C16.8889 16.3889 15.8148 15.3007 14.4444 14.5133C13.0741 13.7259 11.5926 13.3326 10 13.3333C8.40741 13.3333 6.92593 13.727 5.55556 14.5144C4.18519 15.3019 3.11111 16.3896 2.33333 17.7778Z" fill="#909398"/>
</svg>
