<svg width="55" height="55" viewBox="0 0 55 55" fill="none" xmlns="http://www.w3.org/2000/svg">
<path d="M43.0231 33.2651C43.8316 31.2057 44.2705 29.001 44.2705 26.5782C44.2705 24.8338 44.0164 23.162 43.5775 21.6114C42.076 21.9748 40.5052 22.1687 38.8651 22.1687C35.5063 22.1725 32.1959 21.3292 29.2128 19.7101C26.2298 18.0909 23.6617 15.7433 21.7249 12.8651C19.6531 18.123 15.7446 22.3523 10.7986 24.6884C10.7062 25.2941 10.7062 25.9482 10.7062 26.5782C10.7062 28.8913 11.1406 31.1817 11.9845 33.3187C12.8285 35.4557 14.0655 37.3974 15.625 39.033C18.7744 42.3362 23.0459 44.192 27.4999 44.192C29.9254 44.192 32.2585 43.6347 34.3606 42.6414C35.6773 45.2822 36.2779 46.5906 36.2317 46.5906C32.4433 47.9231 29.5096 48.5773 27.4999 48.5773C21.9097 48.5773 16.5736 46.2756 12.6466 42.1326C10.2581 39.6351 8.48253 36.5674 7.4722 33.1924H4.3999V22.1687H6.9178C7.68066 18.274 9.43453 14.6687 11.9933 11.7351C14.5521 8.80151 17.8203 6.64917 21.4512 5.50645C25.0821 4.36374 28.9403 4.27328 32.6162 5.24467C36.2922 6.21605 39.6489 8.21305 42.3301 11.0238C45.2412 14.065 47.2269 17.9435 48.0358 22.1687H50.5999V33.1924H50.4613L42.2377 41.115L29.9947 39.6613V35.6152H41.152L43.0231 33.2651ZM21.1936 26.0209C21.8866 26.0209 22.5565 26.3117 23.0416 26.8447C23.5291 27.3602 23.8027 28.0569 23.8027 28.7829C23.8027 29.509 23.5291 30.2057 23.0416 30.7212C22.5565 31.23 21.8866 31.5207 21.1936 31.5207C19.7383 31.5207 18.5602 30.3093 18.5602 28.7829C18.5602 27.2566 19.7383 26.0209 21.1936 26.0209ZM33.7831 26.0209C35.2384 26.0209 36.3934 27.2566 36.3934 28.7829C36.3934 30.3093 35.2384 31.5207 33.7831 31.5207C32.3278 31.5207 31.1497 30.3093 31.1497 28.7829C31.1497 28.0504 31.4272 27.3479 31.921 26.8299C32.4149 26.3119 33.0847 26.0209 33.7831 26.0209Z" fill="#3A58B7"/>
</svg>
