<svg width="24" height="24" viewBox="0 0 24 24" fill="none" xmlns="http://www.w3.org/2000/svg">
<path d="M18.8501 9.4002L14.6001 5.1502L16.0251 3.7252C16.4084 3.34186 16.8794 3.1502 17.4381 3.1502C17.9968 3.1502 18.4674 3.34186 18.8501 3.7252L20.2751 5.1502C20.6584 5.53353 20.8501 6.00453 20.8501 6.5632C20.8501 7.12186 20.6584 7.59253 20.2751 7.97519L18.8501 9.4002ZM3.0001 21.0002V16.7502L7.5001 12.2502L2.2251 6.9252L6.9501 2.2002L12.2501 7.5252L13.2001 6.5752L17.4501 10.8002L16.5001 11.7502L21.7751 17.0752L17.0751 21.7752L11.7501 16.4752L7.2501 21.0002H3.0001ZM8.9251 10.8252L10.8251 8.9252L9.6251 7.72519L8.4251 8.9002L7.0251 7.5002L8.2001 6.3002L6.9251 5.0502L5.0501 6.9502L8.9251 10.8252ZM17.0501 18.9502L18.9501 17.0502L17.6751 15.8002L16.5001 16.9752L15.0751 15.5752L16.2751 14.3752L15.0501 13.1752L13.1501 15.0752L17.0501 18.9502Z" fill="black"/>
</svg>
