<svg width="26" height="26" viewBox="0 0 26 26" fill="none" xmlns="http://www.w3.org/2000/svg">
<path d="M11.3789 25.9319C10.9197 25.9319 10.5345 25.7763 10.2233 25.4651C9.91209 25.154 9.75704 24.7693 9.75812 24.3112V14.5867L0.357798 2.59319C-0.0473884 2.05294 -0.108436 1.48568 0.174654 0.89141C0.457744 0.297137 0.950991 0 1.65439 0H24.3448C25.0471 0 25.5404 0.297137 25.8246 0.89141C26.1087 1.48568 26.0477 2.05294 25.6414 2.59319L16.2411 14.5867V24.3112C16.2411 24.7704 16.0855 25.1556 15.7743 25.4668C15.4631 25.7779 15.0785 25.933 14.6204 25.9319H11.3789ZM12.9996 13.4522L21.0223 3.24149H4.97692L12.9996 13.4522Z" fill="#7971EA"/>
</svg>
