<svg width="21" height="30" viewBox="0 0 21 30" fill="none" xmlns="http://www.w3.org/2000/svg">
<path d="M16.212 2.8H11.2V0H21V9.8H18.2V4.774L12.838 10.136C13.4707 11.0914 13.8592 12.1875 13.9694 13.3281C14.0795 14.4687 13.908 15.6189 13.4698 16.6778C13.0316 17.7366 12.3402 18.6717 11.4562 19.4009C10.5723 20.1301 9.52282 20.6311 8.4 20.86V23.8H11.2V26.6H8.4V29.4H5.6V26.6H2.8V23.8H5.6V20.86C4.01889 20.5373 2.59785 19.6781 1.57737 18.4281C0.556897 17.178 -0.000329211 15.6137 1.4592e-07 14C1.4592e-07 12.1435 0.737498 10.363 2.05025 9.05025C3.36301 7.7375 5.14348 7 7 7C8.4 7 9.744 7.42 10.85 8.162L16.212 2.8ZM7 9.8C5.88609 9.8 4.8178 10.2425 4.03015 11.0302C3.2425 11.8178 2.8 12.8861 2.8 14C2.8 15.1139 3.2425 16.1822 4.03015 16.9699C4.8178 17.7575 5.88609 18.2 7 18.2C8.11391 18.2 9.1822 17.7575 9.96985 16.9699C10.7575 16.1822 11.2 15.1139 11.2 14C11.2 12.8861 10.7575 11.8178 9.96985 11.0302C9.1822 10.2425 8.11391 9.8 7 9.8Z" fill="#7971EA"/>
</svg>
