<svg width="302" height="300" viewBox="0 0 302 300" fill="none" xmlns="http://www.w3.org/2000/svg">
<path d="M102.341 134.999C114.794 122.719 145.283 125.9 160.155 127.665C182.968 130.374 200.661 141.73 201.801 167.412C202.276 178.12 202.542 188.442 198.091 198.286C193.049 209.439 189.661 213.767 177.933 216.839C167.039 219.692 155.765 220.694 144.757 217.572C134.099 214.55 115.333 208.098 108.15 198.359C99.5919 186.755 90.4443 156.549 101.921 144.679C112.94 133.282 124.986 129.845 140.137 129.719C152.064 129.62 167.443 126.475 176.744 135.732C191.108 150.03 183.247 177.891 168.834 188.826C152.752 201.027 127.444 199.982 108.64 199.679C91.7936 199.407 76.113 195.623 64.1943 182.592C57.2798 175.033 63.9811 159.426 69.7938 153.625C83.711 139.739 103.796 135.887 122.219 136.319C153.38 137.05 173.948 170.075 171.494 200.926C170.319 215.698 160.478 223.692 147.906 227.326C128.291 232.995 109.581 227.448 92.5416 216.546C79.156 207.981 66.0127 191.169 67.344 174.012C69.1582 150.633 90.766 136.856 110.04 129.865C144.993 117.189 211.337 110.525 218.25 162.426C224.176 206.928 173.935 214.333 142.517 212.659C126.285 211.794 110.2 207.542 94.7814 202.319C86.2931 199.444 77.1968 196.023 70.3537 189.779C57.6974 178.23 61.4335 156.886 71.4036 144.825C101.229 108.747 171.847 110.566 195.292 153.552C203.208 168.068 209.913 189.21 202.781 205.399C192.414 228.933 164.975 235.163 142.867 238.399C108.992 243.357 70.1411 242.854 38.6468 227.326C14.4475 215.394 18.7401 187.809 30.8075 166.679C51.2906 130.813 88.1047 99.5537 126.838 88.7988C154.121 81.2233 189.254 72.4499 209.92 98.5521C236.121 131.644 227.626 190.458 201.521 220.726C181.526 243.909 147.28 250.426 118.719 246.026C94.9767 242.367 61.4938 228.916 52.7854 202.906C40.5769 166.441 60.1808 131.578 88.9019 112.119C135.818 80.3322 279.654 43.6482 283.483 140.425C284.508 166.331 274.236 197.25 252.966 212.292C226.793 230.802 185.53 231.217 155.816 225.126C131.7 220.182 104.729 205.806 91.2117 183.472C74.4574 155.791 82.3254 122.718 106.68 103.612C128.361 86.6037 165.383 71.0187 193.052 79.1188C226.074 88.7859 237.535 130.374 236.938 161.986C236.474 186.507 227.572 211.772 205.861 223.732C180.188 237.874 143.552 237.431 117.459 224.906C95.4342 214.333 76.0547 194.472 69.0239 169.759C59.4151 135.985 80.7136 112.716 108.71 99.7254C129.003 90.3095 161.219 82.2864 179.053 100.972C195.031 117.712 195.577 141.35 188.712 162.719C181.568 184.958 165.009 198.233 143.217 202.759C112.54 209.13 76.8659 205.439 49.9857 188.166C28.8925 174.611 41.2907 147.615 53.0654 131.259C79.0665 95.1404 132.563 86.12 172.894 89.9721C200.865 92.6436 234.65 105.684 246.387 135.145C254.053 154.388 248.174 179.537 232.038 191.612C209.073 208.798 180.639 210.979 153.086 210.532C134.11 210.225 116.276 206.946 98.421 200.266C85.1679 195.306 69.1357 188.832 62.0245 175.039C55.7674 162.902 59.9417 151.576 67.064 140.939C81.5433 119.313 103.159 102.9 126.138 92.4654C146.137 83.3838 168.519 79.2527 190.112 77.2854C204.435 75.9805 220.155 74.9033 233.088 82.7854C255.844 96.654 255.529 131.832 248.487 154.799C241.096 178.901 225.345 193.993 202.431 200.852C174.152 209.317 141.295 205.235 115.709 190.072C107.025 184.926 96.1353 177.161 91.5617 167.412C85.5944 154.693 89.2671 135.996 95.6213 124.292C104.893 107.215 124.202 96.1354 140.837 88.7254C160.495 79.9691 182.274 75.787 203.551 74.8654C240.618 73.2598 275.294 86.3945 289.503 125.099C296.893 145.23 289.664 164.926 273.334 177.092C259.77 187.198 244.144 191.147 227.909 193.812C198.182 198.693 167.315 200.364 137.337 197.479C113.34 195.169 90.4095 189.814 67.554 182.006C56.6153 178.268 43.0135 175.091 34.4472 166.386C13.4297 145.026 53.0918 120.381 68.1839 114.172C105.568 98.7934 154.546 96.6255 192.702 110.139C213.516 117.51 230.356 138.841 223.709 162.426C215.952 189.948 183.008 203.426 159.035 209.946C142.516 214.438 125.844 215.234 108.85 215.446C93.0982 215.642 74.694 217.602 59.5048 211.999C35.784 203.248 60.8853 166.547 69.0239 155.679C99.812 114.566 147.299 91.65 196.832 89.3854C225.545 88.0727 234.469 112.328 234.068 138.372C233.558 171.483 215.794 203.537 187.172 218.379C162.048 231.408 128.035 229.138 102.831 217.719C89.3817 211.626 75.6817 202.217 67.204 189.412C57.2413 174.364 58.3052 151.05 61.1846 133.972C67.2445 98.0302 99.009 63.4731 132.158 53.0121C148.977 47.7042 171.043 45.6852 186.333 56.6787C201.469 67.5622 208.64 88.1327 211.81 106.252C217.828 140.641 213.796 168.901 195.922 198.726C182.173 221.666 151.204 227.303 127.258 225.786C100.873 224.114 65.8908 204.508 60.3447 175.039C52.1962 131.742 84.829 83.1979 118.929 62.4721C141.436 48.7924 169.433 42.2364 195.292 41.572C212.706 41.1246 230.938 45.7176 242.607 60.2721C253.365 73.6902 255.794 93.8103 256.746 110.652C258.175 135.936 252.026 158.952 241.627 181.639C227.121 213.287 209.61 235.394 177.373 247.199C157.576 254.448 126.138 258.975 114.31 236.199C102.465 213.393 105.512 177.797 115.709 155.092C123.241 138.325 137.024 121.843 151.476 111.239C164.243 101.87 182.904 91.2602 199.211 94.5188C232.328 101.136 231.265 145.672 230.988 172.986C230.608 210.53 219.167 252.442 184.933 270.592C160.332 283.635 131.528 279.171 108.36 264.506C79.3622 246.15 75.622 206.001 82.4626 173.866C90.7231 135.059 129.376 98.0967 168.134 97.4521C212.238 96.7186 237.076 149.379 233.578 189.412C230.525 224.358 209.452 248.727 176.883 255.999C157.532 260.32 136.113 259.137 116.619 256.879C91.3262 253.949 70.9674 240.029 50.1257 225.492C36.1898 215.772 23.5847 205.098 22.2683 186.479C21.0555 169.323 28.3987 152.54 37.8068 138.959C66.6934 97.2603 130.885 68.4422 179.053 86.0121C206.077 95.8694 215.783 124.694 210.48 152.819C203.348 190.65 163.101 213.555 129.778 219.332C104.212 223.764 65.66 226.185 45.6461 205.692C18.7955 178.2 37.4756 131.83 58.8748 107.572C86.9838 75.7078 131.006 51.7971 173.594 59.3921C206.981 65.3461 211.522 106.465 206.351 134.559C199.168 173.579 174.339 202.711 139.017 216.399C124.076 222.189 85.7998 235.174 74.6933 215.666C62.3424 193.972 67.6746 158.826 79.4528 138.519C100.274 102.621 146.382 90.5406 181.433 109.332C209.461 124.358 240.188 154.045 247.927 187.212C254.207 214.131 244.475 236.444 217.13 242.286C170.02 252.349 27.2075 231.346 81.4827 151.132C108.246 111.578 165.407 105.935 207.331 111.972C235.65 116.05 267.824 127.45 284.393 153.625C298.301 175.597 297.9 209.596 275.854 225.859C263.262 235.147 244.52 238.31 229.588 240.012C206.171 242.682 181.869 242.615 158.475 239.792C139.01 237.444 121.139 229.303 103.461 220.799C90.2649 214.451 77.6878 206.846 78.8229 189.706C81.7223 145.926 118.834 109.379 153.576 89.6788C176.91 76.4472 203.878 68.478 230.008 64.3787C241.904 62.5125 262.813 58.6534 269.345 73.2521C273.939 83.5214 272.644 98.4736 271.864 109.332C270.59 127.095 266.562 145.018 257.026 160.006C235.188 194.325 187.344 211.417 150.076 214.346C128.679 216.027 105.841 215.347 84.8423 210.386C72.1888 207.396 56.9369 203.466 47.9559 192.859C28.4343 169.803 38.3701 129.049 53.2054 106.692C68.8446 83.1239 103.324 71.6252 125.718 92.1721C137.165 102.675 140.935 119.334 145.037 133.972C148.431 146.087 152.433 159.556 150.356 172.326C146.032 198.905 124.877 220.154 100.101 225.859C72.7354 232.16 35.0137 230.668 10.5095 215.226C-5.03731 205.428 1.66157 180.152 8.26969 166.532C26.8081 128.323 65.5705 99.2354 107.31 98.5521C141.17 97.9978 169.051 119.309 175.134 154.359C181.308 189.936 173.319 226.152 150.076 253.359C131.111 275.559 94.0184 279.75 67.344 278.586C56.7681 278.124 45.1803 276.563 35.5671 271.619C26.9147 267.169 27.5742 257.703 29.6176 249.032C38.9165 209.575 81.0803 184.197 115.289 173.352C152.232 161.641 203.78 163.357 228.888 198.506C238 211.261 249.938 232.742 237.848 247.492C220.382 268.8 185.802 263.132 162.885 257.246C141.97 251.873 121.653 243.233 103.741 230.626C94.947 224.436 84.1832 216.955 83.1625 204.886C79.3535 159.847 119.65 130.836 155.956 119.452C192.531 107.984 245.532 107.564 267.805 146.879C280.32 168.97 273.039 203.39 253.736 218.379C226.417 239.593 181.721 228.683 153.086 217.352C138.316 211.508 121.174 205.481 109.9 193.226C96.17 178.301 92.2114 156.473 94.9214 136.465C100.903 92.304 135.893 55.9167 170.374 33.0654C195.278 16.5613 239.584 0.281126 256.396 36.292C267.142 59.3107 266.622 91.4498 255.206 114.099C240.391 143.491 203.407 141.195 176.953 133.532C144.908 124.25 109.488 102.426 88.9019 74.7187C82.88 66.6137 79.2068 55.8376 80.2228 45.4587C81.6074 31.3148 95.8599 25.2213 107.73 23.8254C141.168 19.893 175.908 42.0125 188.082 74.9387C196.646 98.0985 200.022 129.594 178.353 145.999C154.2 164.285 113.65 155.128 88.062 146.585C70.7591 140.809 59.6577 134.646 56.915 114.172C54.0304 92.6382 63.9682 83.0744 82.4626 77.5054C117.19 67.0484 159.943 74.6274 189.832 95.5454C200.436 102.967 214.068 113.982 217.76 127.519C221.384 140.808 216.285 155.5 208.101 165.652C186.94 191.9 150.065 197.283 119.279 196.819C101.601 196.552 61.8288 195.815 61.0446 169.319C59.9081 130.917 115.88 113.585 143.497 111.092C187.362 107.132 245.135 121.223 269.135 164.406C280.13 184.189 270.334 207.503 253.036 218.672C224.919 236.827 185.065 236.826 153.856 229.892C135.175 225.742 116.682 217.664 101.501 205.399C94.6407 199.857 90.7841 193.756 93.3815 184.426C96.6497 172.686 107.833 161.746 117.389 155.459C132.44 145.557 153.358 145.768 170.374 147.465C194.616 149.884 227.688 165.397 232.528 193.519C237.378 221.698 199.973 232.419 180.033 235.172C137.631 241.028 94.4069 231.915 55.7251 213.759C52.3434 212.172 36.9219 206.913 37.3169 200.706C38.0096 189.82 51.9804 187.919 59.5748 187.286C96.6029 184.196 133.19 187.253 167.084 204.226C176.616 208.998 190.058 215.381 195.712 225.492C201.113 235.152 195.245 249.694 188.992 257.172C172.428 276.984 145.252 278.179 121.939 278.586C116.47 278.681 50.8883 276.078 58.8748 260.179C63.7855 250.404 78.3549 245.514 87.5021 242.506C106.185 236.362 125.464 236.639 144.827 236.639C168.901 236.639 190.259 243.099 207.891 261.572C216.307 270.391 213.766 278.027 203.551 281.226C177.525 289.375 143.48 275.486 119.979 265.532C97.6116 256.059 72.8469 247.369 52.4354 233.706C40.5593 225.756 39.57 213.945 50.8256 204.592C63.072 194.416 79.8007 191.55 94.9214 189.999C122.354 187.185 151.685 188.513 178.913 192.346C201.072 195.464 222.43 202.634 239.247 218.599C246.71 225.684 252.015 233.518 248.627 244.266C240.822 269.018 198.543 264.839 180.453 263.479C148.047 261.043 114.994 254.445 84.2824 243.239C68.4904 237.477 44.1119 228.517 34.3072 212.952C29.1917 204.832 34.8573 194.104 39.7667 187.506C50.6475 172.882 66.9503 162.465 82.9525 155.166C102.328 146.327 123.431 142.044 144.477 140.865C156.47 140.194 175.147 140.848 178.913 155.972C184.006 176.424 176.524 200.491 158.615 211.412C148.84 217.374 135.644 215.609 124.878 215.446C100.3 215.072 79.4336 206.602 58.1049 194.032C39.7541 183.217 21.4045 167.405 34.0972 143.579C52.8194 108.434 90.161 81.315 128.658 78.6788C154.533 76.9069 183.843 86.0136 181.923 119.012C180.472 143.946 160.687 162.708 137.477 163.746C93.1022 165.73 48.1319 84.0152 102.481 64.0854C151.114 46.2514 180.622 126.345 131.458 144.679C118.196 149.625 103.856 147.806 90.3718 145.045C71.3176 141.145 52.5275 134.3 36.687 122.239C29.578 116.826 25.9257 109.436 28.9877 100.239C39.6312 68.2715 80.0589 73.2614 105.28 73.9854C128.148 74.6418 197.76 77.1618 186.823 121.652C179.56 151.193 135.941 152.061 114.379 145.412C95.0503 139.451 67.111 121.969 77.843 96.8654C85.4726 79.019 102.834 67.4124 119.069 59.3921C150.906 43.6645 188.388 38.6119 223.289 41.4987C252.93 43.9505 311.021 60.194 299.512 103.905C291.467 134.46 261.733 144.167 235.328 146.585C215.471 148.404 195.361 147.884 175.764 143.872C163.246 141.31 146.42 137.969 136.357 128.839C115.005 109.465 145.411 77.2922 161.765 68.4121C197.094 49.2294 242.132 47.1339 262.415 90.0454C273.157 112.77 266.713 144.156 244.987 156.559C231.461 164.281 215.179 166.02 200.121 167.046C159.136 169.837 119.242 152.67 82.4626 135.439C69.8879 129.547 54.3223 125.057 60.1347 108.745C65.2014 94.5264 76.5491 84.1214 90.3018 79.8521C121.311 70.2258 153.384 80.8554 168.064 112.779C175.165 128.22 176.484 145.633 173.874 162.426C170.731 182.644 158.883 193.973 139.717 197.919C125.488 200.848 110.216 199.001 96.5312 194.326C89.5756 191.949 80.8449 188.88 77.703 181.199C67.6885 156.717 96.755 132.47 114.869 124.879C153.041 108.882 201.665 112.831 233.858 140.939C249.792 154.851 261.246 186.487 246.667 205.399C228.4 229.095 188.698 222.049 164.495 216.839C152.1 214.171 135.654 210.508 125.298 202.319C115.4 194.492 121.583 178.59 126.908 170.052C145.237 140.665 180.872 127.911 213.21 128.839C232.004 129.378 253.528 135.834 267.665 149.519C280.147 161.603 283.349 179.283 285.093 196.159C286.386 208.663 288.383 227.338 280.124 238.399C272.593 248.484 256.23 251.107 245.127 251.306C219.651 251.761 192.678 248.602 168.974 238.399C155.865 232.756 139.098 226.424 128.938 215.592C119.826 205.878 127.515 192.924 133.978 183.839C154.26 155.325 195.536 137.39 228.748 135.952C237.787 135.561 250.126 135.14 255.486 144.532C259.856 152.189 259.283 164.41 258.006 172.839C254.643 195.037 230.274 201.857 212.09 203.052C191.799 204.386 172.273 198.85 153.156 192.346C134.794 186.098 112.423 178.945 99.4009 162.866C83.5392 143.279 96.0723 116.987 111.09 101.559C132.68 79.3774 182.505 56.9902 209.99 81.1721C225.651 94.9504 228.178 127.991 221.749 147.025C213.586 171.197 174.012 179.382 153.016 177.239C132.322 175.127 106.037 169.261 100.941 144.239C93.5108 107.758 112.985 76.4026 140.137 56.3121C158.217 42.9346 178.233 35.5534 200.051 32.1854C210.634 30.5517 228.502 26.717 233.228 40.692C237.523 53.3907 230.427 71.0814 225.459 82.1988C215.679 104.084 201.612 125.687 184.373 141.892C156.774 167.836 121.932 176.69 86.3822 166.532C65.2544 160.495 38.6515 141.309 41.0265 115.492C45.0952 71.2653 103.526 67.6632 135.377 72.6654C170.292 78.1488 211.629 104.846 215.17 145.265C217.834 175.674 193.951 191.125 168.064 191.539C132.687 192.105 97.4608 176.356 73.2234 148.785C54.7427 127.763 75.2672 98.0716 97.3011 92.0254C129.448 83.2043 173.734 96.2196 187.452 130.745C196.044 152.368 190.18 170.348 174.644 186.626C156.779 205.343 140.725 206.715 118.509 196.892C104.525 190.709 84.7338 177.66 95.7613 159.126C117.003 123.425 173.281 134.076 202.011 150.692C224.756 163.847 250.686 190.225 248.207 220.212C246.232 244.101 224.927 245.58 206.911 242.946C188.796 240.297 170.996 235.382 153.856 228.719C144.625 225.131 129.654 220.764 123.129 212.219C119.798 207.857 121.199 199.242 124.459 195.279C133.138 184.726 154.36 187.446 165.615 188.972C186.189 191.763 206.042 200.376 222.729 213.246C233.649 221.667 247.68 234.176 251.706 248.519C263.441 290.322 180.889 268.974 165.405 264.872C148.954 260.515 132.845 255.211 117.179 248.372C114.782 247.326 110.25 246.262 109.41 243.092C107.391 235.478 127.994 228 132.578 226.079" stroke="black" stroke-linecap="round"/>
<rect width="21.1891" height="393.525" transform="matrix(0.69044 0.72339 -0.69044 0.72339 280.311 0)" fill="#FEFBFF"/>
<path d="M19.2694 287.588C22.32 290.785 27.2659 290.785 30.3165 287.588C33.367 284.392 33.367 279.21 30.3165 276.014C27.2659 272.818 22.32 272.818 19.2694 276.014C16.2189 279.21 16.2189 284.392 19.2694 287.588ZM276.696 17.877L260.36 22.4631L272.319 34.9926L276.696 17.877ZM25.8286 282.886L268.41 28.7279L266.339 26.5577L23.7573 280.716L25.8286 282.886Z" fill="#3A58B7"/>
</svg>
