<svg width="21" height="21" viewBox="0 0 21 21" fill="none" xmlns="http://www.w3.org/2000/svg">
<path d="M18.7949 3.83333H14.9487V3C14.9487 2.33696 14.7056 1.70107 14.2728 1.23223C13.84 0.763392 13.253 0.5 12.641 0.5H8.02562C7.41358 0.5 6.82661 0.763392 6.39384 1.23223C5.96106 1.70107 5.71793 2.33696 5.71793 3V3.83333H1.87177C1.46375 3.83333 1.07244 4.00893 0.783918 4.32149C0.4954 4.63405 0.333313 5.05797 0.333313 5.5V18.8333C0.333313 19.2754 0.4954 19.6993 0.783918 20.0118C1.07244 20.3244 1.46375 20.5 1.87177 20.5H18.7949C19.2029 20.5 19.5942 20.3244 19.8827 20.0118C20.1712 19.6993 20.3333 19.2754 20.3333 18.8333V5.5C20.3333 5.05797 20.1712 4.63405 19.8827 4.32149C19.5942 4.00893 19.2029 3.83333 18.7949 3.83333ZM7.25639 3C7.25639 2.77899 7.33743 2.56702 7.48169 2.41074C7.62595 2.25446 7.82161 2.16667 8.02562 2.16667H12.641C12.845 2.16667 13.0407 2.25446 13.1849 2.41074C13.3292 2.56702 13.4102 2.77899 13.4102 3V3.83333H7.25639V3ZM13.4102 5.5V18.8333H7.25639V5.5H13.4102ZM1.87177 5.5H5.71793V18.8333H1.87177V5.5ZM18.7949 18.8333H14.9487V5.5H18.7949V18.8333Z" fill="#45464F"/>
</svg>
