<svg width="24" height="24" viewBox="0 0 24 24" fill="none" xmlns="http://www.w3.org/2000/svg">
<path d="M12.7498 21.75H11.2498C10.8519 21.75 10.4704 21.592 10.1891 21.3107C9.9078 21.0294 9.74976 20.6478 9.74976 20.25L9.7521 16.2272C9.75215 16.1943 9.74352 16.1619 9.72709 16.1333C9.71065 16.1048 9.68699 16.0811 9.65847 16.0646C9.62996 16.0481 9.59761 16.0394 9.56467 16.0394C9.53174 16.0394 9.49938 16.0481 9.47085 16.0645L5.98617 18.083C5.64726 18.2786 5.24452 18.3316 4.86653 18.2304C4.48853 18.1291 4.16624 17.8818 3.97054 17.543L3.1971 16.2005L3.19429 16.1958C3.00386 15.857 2.95395 15.4571 3.05528 15.0819C3.15661 14.7068 3.40109 14.3863 3.73617 14.1895L7.23351 12.1622C7.26192 12.1457 7.28551 12.122 7.3019 12.0936C7.3183 12.0651 7.32693 12.0328 7.32693 12C7.32693 11.9672 7.3183 11.9349 7.3019 11.9064C7.28551 11.878 7.26192 11.8543 7.23351 11.8378L3.73945 9.81234C3.57121 9.71587 3.4237 9.58712 3.30536 9.43348C3.18703 9.27983 3.10022 9.10432 3.04991 8.91703C2.99961 8.72974 2.9868 8.53435 3.01222 8.3421C3.03764 8.14984 3.10079 7.9645 3.19804 7.79672L3.96867 6.45844C4.06604 6.28925 4.19602 6.14106 4.35107 6.02246C4.50612 5.90385 4.68317 5.8172 4.87195 5.7675C5.05858 5.71742 5.25329 5.70488 5.4448 5.73063C5.63631 5.75638 5.8208 5.8199 5.98757 5.9175L9.47085 7.93313C9.49938 7.94959 9.53174 7.95826 9.56467 7.95825C9.59761 7.95823 9.62996 7.94955 9.65847 7.93306C9.68699 7.91657 9.71065 7.89286 9.72709 7.86432C9.74352 7.83577 9.75215 7.80341 9.7521 7.77047L9.74976 3.75C9.74976 3.35218 9.9078 2.97064 10.1891 2.68934C10.4704 2.40804 10.8519 2.25 11.2498 2.25H12.7498C13.1476 2.25 13.5291 2.40804 13.8104 2.68934C14.0917 2.97064 14.2498 3.35218 14.2498 3.75V7.76813C14.2497 7.80106 14.2583 7.83343 14.2748 7.86197C14.2912 7.89051 14.3149 7.91422 14.3434 7.93071C14.3719 7.9472 14.4043 7.95589 14.4372 7.9559C14.4701 7.95591 14.5025 7.94725 14.531 7.93078L18.0157 5.91234C18.3547 5.71707 18.7573 5.66426 19.1352 5.7655C19.5131 5.86673 19.8354 6.11375 20.0313 6.45234L20.8043 7.79484L20.8071 7.79906C20.9997 8.13816 21.0504 8.53966 20.9482 8.91601C20.846 9.29236 20.5992 9.61304 20.2615 9.80813L16.7679 11.8331C16.7395 11.8496 16.7159 11.8733 16.6995 11.9017C16.6831 11.9302 16.6745 11.9625 16.6745 11.9953C16.6745 12.0282 16.6831 12.0604 16.6995 12.0889C16.7159 12.1174 16.7395 12.141 16.7679 12.1575L20.2615 14.1825C20.4297 14.279 20.5772 14.4077 20.6956 14.5614C20.8139 14.715 20.9007 14.8905 20.9511 15.0778C21.0014 15.265 21.0143 15.4604 20.989 15.6527C20.9636 15.8449 20.9005 16.0303 20.8034 16.1981L20.0327 17.5364C19.9354 17.7056 19.8054 17.8538 19.6503 17.9724C19.4953 18.091 19.3182 18.1776 19.1294 18.2273C18.9428 18.2774 18.7481 18.29 18.5566 18.2642C18.3651 18.2385 18.1806 18.1749 18.0138 18.0773L14.5305 16.0617C14.5021 16.0453 14.4697 16.0366 14.4368 16.0366C14.4039 16.0366 14.3716 16.0452 14.3431 16.0617C14.3146 16.0781 14.291 16.1017 14.2745 16.1302C14.258 16.1587 14.2493 16.191 14.2493 16.2239L14.2498 20.25C14.2498 20.6478 14.0917 21.0294 13.8104 21.3107C13.5291 21.592 13.1476 21.75 12.7498 21.75Z" fill="black"/>
</svg>
