<svg width="26" height="25" viewBox="0 0 26 25" fill="none" xmlns="http://www.w3.org/2000/svg">
<path d="M1.95 20.8C2.46717 20.8 2.96316 21.0054 3.32886 21.3711C3.69455 21.7368 3.9 22.2328 3.9 22.75C3.9 23.2672 3.69455 23.7632 3.32886 24.1289C2.96316 24.4946 2.46717 24.7 1.95 24.7C1.43283 24.7 0.936838 24.4946 0.571142 24.1289C0.205446 23.7632 0 23.2672 0 22.75C0 22.2328 0.205446 21.7368 0.571142 21.3711C0.936838 21.0054 1.43283 20.8 1.95 20.8ZM8.45 16.9C9.31195 16.9 10.1386 17.2424 10.7481 17.8519C11.3576 18.4614 11.7 19.288 11.7 20.15C11.7 21.012 11.3576 21.8386 10.7481 22.4481C10.1386 23.0576 9.31195 23.4 8.45 23.4C7.58805 23.4 6.7614 23.0576 6.1519 22.4481C5.54241 21.8386 5.2 21.012 5.2 20.15C5.2 19.288 5.54241 18.4614 6.1519 17.8519C6.7614 17.2424 7.58805 16.9 8.45 16.9ZM16.25 15.6C14.703 15.6 13.299 14.95 12.35 13.845C11.401 14.95 9.997 15.6 8.45 15.6C5.902 15.6 3.783 13.767 3.341 11.362C2.35924 10.9823 1.51501 10.315 0.918871 9.4475C0.322729 8.57996 0.00245895 7.55262 0 6.5C0 5.12087 0.547856 3.79823 1.52304 2.82305C2.49823 1.84786 3.82087 1.3 5.2 1.3L6.201 1.391C7.15 0.533 8.385 0 9.75 0C11.297 0 12.701 0.65 13.65 1.755C14.599 0.65 16.003 0 17.55 0C20.098 0 22.217 1.833 22.659 4.238C23.6408 4.61767 24.485 5.28497 25.0811 6.15251C25.6773 7.02004 25.9975 8.04739 26 9.1C26 10.4791 25.4521 11.8018 24.477 12.777C23.5018 13.7521 22.1791 14.3 20.8 14.3L19.799 14.209C18.85 15.067 17.615 15.6 16.25 15.6ZM5.2 3.9C4.51044 3.9 3.84912 4.17393 3.36152 4.66152C2.87393 5.14912 2.6 5.81044 2.6 6.5C2.6 7.18956 2.87393 7.85088 3.36152 8.33848C3.84912 8.82607 4.51044 9.1 5.2 9.1C5.629 9.1 6.032 8.996 6.396 8.814C6.04378 9.26783 5.85179 9.82553 5.85 10.4C5.85 11.0896 6.12393 11.7509 6.61152 12.2385C7.09912 12.7261 7.76044 13 8.45 13C9.23 13 9.932 12.649 10.4 12.103L12.311 9.919L14.3 12.142C14.794 12.662 15.483 13 16.25 13C17.55 13 18.629 12.038 18.85 10.79C19.292 11.349 20.007 11.7 20.8 11.7C21.4896 11.7 22.1509 11.4261 22.6385 10.9385C23.1261 10.4509 23.4 9.78956 23.4 9.1C23.4 8.41044 23.1261 7.74912 22.6385 7.26152C22.1509 6.77393 21.4896 6.5 20.8 6.5C20.371 6.5 19.968 6.604 19.604 6.786C19.9562 6.33217 20.1482 5.77447 20.15 5.2C20.15 4.51044 19.8761 3.84912 19.3885 3.36152C18.9009 2.87393 18.2396 2.6 17.55 2.6C16.783 2.6 16.094 2.938 15.6 3.458L13.611 5.681L11.7 3.497C11.232 2.951 10.53 2.6 9.75 2.6C8.45 2.6 7.371 3.562 7.15 4.81C6.708 4.251 5.993 3.9 5.2 3.9ZM8.45 18.85C8.10522 18.85 7.77456 18.987 7.53076 19.2308C7.28696 19.4746 7.15 19.8052 7.15 20.15C7.15 20.4948 7.28696 20.8254 7.53076 21.0692C7.77456 21.313 8.10522 21.45 8.45 21.45C8.79478 21.45 9.12544 21.313 9.36924 21.0692C9.61304 20.8254 9.75 20.4948 9.75 20.15C9.75 19.8052 9.61304 19.4746 9.36924 19.2308C9.12544 18.987 8.79478 18.85 8.45 18.85Z" fill="#7971EA"/>
</svg>
