<svg width="46" height="44" viewBox="0 0 46 44" fill="none" xmlns="http://www.w3.org/2000/svg">
<path d="M8.5 8.0625C8.5 7.44693 8.62125 6.83739 8.85681 6.26867C9.09238 5.69996 9.43766 5.18321 9.87294 4.74794C10.3082 4.31266 10.825 3.96738 11.3937 3.73181C11.9624 3.49625 12.5719 3.375 13.1875 3.375C13.8031 3.375 14.4126 3.49625 14.9813 3.73181C15.55 3.96738 16.0668 4.31266 16.5021 4.74794C16.9373 5.18321 17.2826 5.69996 17.5182 6.26867C17.7538 6.83739 17.875 7.44693 17.875 8.0625C17.875 9.3057 17.3811 10.498 16.5021 11.3771C15.623 12.2561 14.4307 12.75 13.1875 12.75C11.9443 12.75 10.752 12.2561 9.87294 11.3771C8.99386 10.498 8.5 9.3057 8.5 8.0625ZM13.1875 0.25C11.1155 0.25 9.12836 1.0731 7.66323 2.53823C6.1981 4.00336 5.375 5.9905 5.375 8.0625C5.375 10.1345 6.1981 12.1216 7.66323 13.5868C9.12836 15.0519 11.1155 15.875 13.1875 15.875C15.2595 15.875 17.2466 15.0519 18.7118 13.5868C20.1769 12.1216 21 10.1345 21 8.0625C21 5.9905 20.1769 4.00336 18.7118 2.53823C17.2466 1.0731 15.2595 0.25 13.1875 0.25ZM28.8125 9.625C28.8125 8.7962 29.1417 8.00134 29.7278 7.41529C30.3138 6.82924 31.1087 6.5 31.9375 6.5C32.7663 6.5 33.5612 6.82924 34.1472 7.41529C34.7333 8.00134 35.0625 8.7962 35.0625 9.625C35.0625 10.4538 34.7333 11.2487 34.1472 11.8347C33.5612 12.4208 32.7663 12.75 31.9375 12.75C31.1087 12.75 30.3138 12.4208 29.7278 11.8347C29.1417 11.2487 28.8125 10.4538 28.8125 9.625ZM27.0063 13.4688C28.6064 12.9909 30.2676 12.7488 31.9375 12.75C33.6074 12.7488 35.2686 12.9909 36.8688 13.4688C37.5883 12.5455 38.0341 11.4387 38.1554 10.2745C38.2767 9.11026 38.0686 7.93535 37.5549 6.88359C37.0411 5.83183 36.2423 4.94548 35.2495 4.32549C34.2566 3.7055 33.1096 3.37679 31.9391 3.37679C30.7685 3.37679 29.6215 3.7055 28.6287 4.32549C27.6358 4.94548 26.837 5.83183 26.3232 6.88359C25.8095 7.93535 25.6014 9.11026 25.7227 10.2745C25.844 11.4387 26.2898 12.5455 27.0094 13.4688H27.0063ZM5.375 19H18.6781C17.8823 19.964 17.1939 21.0119 16.625 22.125H5.375C4.9606 22.125 4.56317 22.2896 4.27015 22.5826C3.97712 22.8757 3.8125 23.2731 3.8125 23.6875V23.9906L3.825 24.1406C3.94602 25.108 4.30933 26.0292 4.88125 26.8188C5.9 28.2219 8.11875 29.9375 13.1875 29.9375C13.7406 29.9375 14.2625 29.9156 14.75 29.8781V29.9375C14.75 30.9813 14.8438 32 15.0219 32.9906C14.4116 33.0392 13.7997 33.0632 13.1875 33.0625C7.31875 33.0625 4.06875 31.0187 2.35312 28.6594C1.45863 27.4242 0.895906 25.9803 0.71875 24.4656C0.703198 24.3233 0.692775 24.1805 0.6875 24.0375V23.6875C0.6875 22.4443 1.18136 21.252 2.06044 20.3729C2.93951 19.4939 4.1318 19 5.375 19ZM46 29.9375C46 33.6671 44.5184 37.244 41.8812 39.8812C39.244 42.5184 35.6671 44 31.9375 44C28.2079 44 24.631 42.5184 21.9938 39.8812C19.3566 37.244 17.875 33.6671 17.875 29.9375C17.875 26.2079 19.3566 22.631 21.9938 19.9938C24.631 17.3566 28.2079 15.875 31.9375 15.875C35.6671 15.875 39.244 17.3566 41.8812 19.9938C44.5184 22.631 46 26.2079 46 29.9375ZM31.9375 22.125C31.5231 22.125 31.1257 22.2896 30.8326 22.5826C30.5396 22.8757 30.375 23.2731 30.375 23.6875V29.9375C30.375 30.3519 30.5396 30.7493 30.8326 31.0424C31.1257 31.3354 31.5231 31.5 31.9375 31.5C32.3519 31.5 32.7493 31.3354 33.0424 31.0424C33.3354 30.7493 33.5 30.3519 33.5 29.9375V23.6875C33.5 23.2731 33.3354 22.8757 33.0424 22.5826C32.7493 22.2896 32.3519 22.125 31.9375 22.125ZM31.9375 38.1406C32.4555 38.1406 32.9523 37.9349 33.3186 37.5686C33.6849 37.2023 33.8906 36.7055 33.8906 36.1875C33.8906 35.6695 33.6849 35.1727 33.3186 34.8064C32.9523 34.4401 32.4555 34.2344 31.9375 34.2344C31.4195 34.2344 30.9227 34.4401 30.5564 34.8064C30.1901 35.1727 29.9844 35.6695 29.9844 36.1875C29.9844 36.7055 30.1901 37.2023 30.5564 37.5686C30.9227 37.9349 31.4195 38.1406 31.9375 38.1406Z" fill="white"/>
</svg>
