<svg width="55" height="55" viewBox="0 0 55 55" fill="none" xmlns="http://www.w3.org/2000/svg">
<g clip-path="url(#clip0_309_553)">
<path d="M48.1251 16.0417C48.7092 16.0424 49.271 16.2661 49.6957 16.667C50.1204 17.068 50.376 17.616 50.4103 18.1991C50.4445 18.7822 50.2548 19.3564 49.8799 19.8043C49.505 20.2522 48.9732 20.5401 48.3932 20.609L48.1251 20.6251V43.5417C48.7092 43.5424 49.271 43.7661 49.6957 44.167C50.1204 44.568 50.376 45.116 50.4103 45.6991C50.4445 46.2822 50.2548 46.8564 49.8799 47.3043C49.505 47.7522 48.9732 48.04 48.3932 48.109L48.1251 48.1251H6.87507C6.29097 48.1244 5.72916 47.9008 5.30443 47.4998C4.8797 47.0988 4.62411 46.5508 4.58988 45.9677C4.55565 45.3846 4.74536 44.8105 5.12026 44.3625C5.49515 43.9146 6.02693 43.6268 6.60694 43.5578L6.87507 43.5417V20.6251C6.29097 20.6244 5.72916 20.4008 5.30443 19.9998C4.8797 19.5988 4.62411 19.0508 4.58988 18.4677C4.55565 17.8846 4.74536 17.3105 5.12026 16.8625C5.49515 16.4146 6.02693 16.1268 6.60694 16.0578L6.87507 16.0417H48.1251ZM43.5417 20.6251H11.4584V43.5417H16.0417V27.5001C16.0417 26.8923 16.2832 26.3094 16.7129 25.8796C17.1427 25.4499 17.7256 25.2084 18.3334 25.2084C18.9412 25.2084 19.5241 25.4499 19.9539 25.8796C20.3836 26.3094 20.6251 26.8923 20.6251 27.5001V43.5417H25.2084V27.5001C25.2084 26.8923 25.4498 26.3094 25.8796 25.8796C26.3094 25.4499 26.8923 25.2084 27.5001 25.2084C28.1079 25.2084 28.6907 25.4499 29.1205 25.8796C29.5503 26.3094 29.7917 26.8923 29.7917 27.5001V43.5417H34.3751V27.5001C34.3751 26.8923 34.6165 26.3094 35.0463 25.8796C35.4761 25.4499 36.0589 25.2084 36.6667 25.2084C37.2745 25.2084 37.8574 25.4499 38.2872 25.8796C38.717 26.3094 38.9584 26.8923 38.9584 27.5001V43.5417H43.5417V20.6251ZM41.2501 9.16675C41.8579 9.16675 42.4407 9.40819 42.8705 9.83796C43.3003 10.2677 43.5417 10.8506 43.5417 11.4584C43.5417 12.0662 43.3003 12.6491 42.8705 13.0789C42.4407 13.5086 41.8579 13.7501 41.2501 13.7501H13.7501C13.1423 13.7501 12.5594 13.5086 12.1296 13.0789C11.6998 12.6491 11.4584 12.0662 11.4584 11.4584C11.4584 10.8506 11.6998 10.2677 12.1296 9.83796C12.5594 9.40819 13.1423 9.16675 13.7501 9.16675H41.2501Z" fill="#3A58B7"/>
</g>
<defs>
<clipPath id="clip0_309_553">
<rect width="55" height="55" fill="white"/>
</clipPath>
</defs>
</svg>
