<svg width="55" height="55" viewBox="0 0 55 55" fill="none" xmlns="http://www.w3.org/2000/svg">
<path d="M9.16659 48.125C7.90617 48.125 6.8268 47.6758 5.92846 46.7775C5.03013 45.8792 4.58173 44.8006 4.58326 43.5417V11.4583C4.58326 10.1979 5.03242 9.11855 5.93076 8.22021C6.82909 7.32188 7.9077 6.87348 9.16659 6.875H22.9166C24.177 6.875 25.2564 7.32417 26.1547 8.2225C27.053 9.12084 27.5015 10.1994 27.4999 11.4583V16.0417H45.8333C47.0937 16.0417 48.173 16.4908 49.0714 17.3892C49.9697 18.2875 50.4181 19.3661 50.4166 20.625V43.5417C50.4166 44.8021 49.9674 45.8815 49.0691 46.7798C48.1708 47.6781 47.0921 48.1265 45.8333 48.125H9.16659ZM9.16659 43.5417H22.9166V38.9583H9.16659V43.5417ZM9.16659 34.375H22.9166V29.7917H9.16659V34.375ZM9.16659 25.2083H22.9166V20.625H9.16659V25.2083ZM9.16659 16.0417H22.9166V11.4583H9.16659V16.0417ZM27.4999 43.5417H45.8333V20.625H27.4999V43.5417ZM32.0833 29.7917V25.2083H41.2499V29.7917H32.0833ZM32.0833 38.9583V34.375H41.2499V38.9583H32.0833Z" fill="#3A58B7"/>
</svg>
