<svg width="55" height="55" viewBox="0 0 55 55" fill="none" xmlns="http://www.w3.org/2000/svg">
<path d="M17.1875 26.3542V21.7708H37.8125V26.3542H17.1875ZM9.16663 6.875C8.15772 6.87504 7.17701 7.20798 6.3766 7.82219C5.57619 8.43639 5.0008 9.29753 4.73967 10.2721C4.47855 11.2466 4.54627 12.2801 4.93234 13.2122C5.3184 14.1443 6.00125 14.923 6.87496 15.4275V46.4063C6.87496 47.355 7.64496 48.125 8.59371 48.125H13.75V36.0938C13.75 35.6379 13.931 35.2007 14.2534 34.8784C14.5757 34.5561 15.0129 34.375 15.4687 34.375H24.6354C25.0912 34.375 25.5284 34.5561 25.8507 34.8784C26.173 35.2007 26.3541 35.6379 26.3541 36.0938V48.125H46.4062C46.8621 48.125 47.2992 47.9439 47.6216 47.6216C47.9439 47.2993 48.125 46.8621 48.125 46.4063V15.4275C48.9987 14.923 49.6815 14.1443 50.0676 13.2122C50.4537 12.2801 50.5214 11.2466 50.2603 10.2721C49.9991 9.29753 49.4237 8.43639 48.6233 7.82219C47.8229 7.20798 46.8422 6.87504 45.8333 6.875H9.16663ZM8.0208 11.4583C8.0208 11.1544 8.14152 10.863 8.3564 10.6481C8.57129 10.4332 8.86274 10.3125 9.16663 10.3125H45.8333C46.1372 10.3125 46.4286 10.4332 46.6435 10.6481C46.8584 10.863 46.9791 11.1544 46.9791 11.4583C46.9791 11.7622 46.8584 12.0537 46.6435 12.2686C46.4286 12.4834 46.1372 12.6042 45.8333 12.6042H9.16663C8.86274 12.6042 8.57129 12.4834 8.3564 12.2686C8.14152 12.0537 8.0208 11.7622 8.0208 11.4583ZM15.4687 18.3333H39.5312C39.9871 18.3333 40.4242 18.5144 40.7466 18.8367C41.0689 19.1591 41.25 19.5962 41.25 20.0521V28.0729C41.25 28.5288 41.0689 28.9659 40.7466 29.2883C40.4242 29.6106 39.9871 29.7917 39.5312 29.7917H15.4687C15.0129 29.7917 14.5757 29.6106 14.2534 29.2883C13.931 28.9659 13.75 28.5288 13.75 28.0729V20.0521C13.75 19.5962 13.931 19.1591 14.2534 18.8367C14.5757 18.5144 15.0129 18.3333 15.4687 18.3333ZM33.802 34.375H39.5312C39.9871 34.375 40.4242 34.5561 40.7466 34.8784C41.0689 35.2007 41.25 35.6379 41.25 36.0938V41.8229C41.25 42.2788 41.0689 42.7159 40.7466 43.0383C40.4242 43.3606 39.9871 43.5417 39.5312 43.5417H33.802C33.3462 43.5417 32.909 43.3606 32.5867 43.0383C32.2644 42.7159 32.0833 42.2788 32.0833 41.8229V36.0938C32.0833 35.6379 32.2644 35.2007 32.5867 34.8784C32.909 34.5561 33.3462 34.375 33.802 34.375ZM22.9166 37.8125V48.125H17.1875V37.8125H22.9166Z" fill="#3A58B7"/>
</svg>
