<svg width="22" height="22" viewBox="0 0 22 22" fill="none" xmlns="http://www.w3.org/2000/svg">
<path fill-rule="evenodd" clip-rule="evenodd" d="M20.3129 4.79185L19.2404 4.53885L16.3419 7.42085L14.7001 5.74885L17.5271 2.78297L17.2796 1.69397C16.6822 1.49412 16.0574 1.38836 15.4275 1.38047C14.7403 1.36991 14.0584 1.50096 13.4241 1.76547C12.8117 2.04269 12.2581 2.43477 11.7934 2.92047C11.276 3.41054 10.8663 4.00288 10.5902 4.65985C10.0587 5.96731 10.0587 7.43063 10.5902 8.7381C7.72368 11.5582 4.89415 14.4157 2.10235 17.3098C1.8136 17.688 1.6761 18.1596 1.71185 18.634C1.74003 19.1442 1.96948 19.6224 2.34985 19.9636C2.52035 20.1492 2.72385 20.3032 2.95073 20.4146C3.18448 20.5177 3.4361 20.5768 3.69048 20.5892C4.12498 20.581 4.5416 20.416 4.86473 20.1258C6.99323 18.1225 11.0715 14.0071 13.3884 11.5953C14.0167 11.8621 14.6919 11.9996 15.3739 11.9982C16.0604 11.9977 16.7398 11.8595 17.372 11.592C18.0042 11.3244 18.5764 10.9328 19.0547 10.4403C20.0372 9.43833 20.586 8.08993 20.5824 6.6866C20.5982 6.04444 20.5072 5.40411 20.3129 4.79185ZM4.03285 19.151C3.97993 19.198 3.91613 19.2311 3.84723 19.2472C3.77944 19.259 3.71014 19.259 3.64235 19.2472C3.57128 19.2364 3.50358 19.2096 3.44435 19.1688C3.38079 19.1316 3.32705 19.0798 3.2876 19.0176C3.0951 18.821 2.91498 18.447 3.0951 18.2366C4.97885 16.2332 8.85773 12.3172 11.2832 9.92335C11.4207 10.1048 11.572 10.2781 11.7342 10.4403C11.8965 10.6095 12.0711 10.7662 12.2567 10.9092C9.91098 13.3155 6.08435 17.1847 4.03285 19.151ZM19.3201 6.6866C19.3229 7.73847 18.9131 8.7491 18.1761 9.5026C17.4406 10.2241 16.4515 10.6282 15.4213 10.6282C14.3911 10.6282 13.4019 10.2241 12.6665 9.5026C12.1275 8.94008 11.7592 8.23607 11.6047 7.47248C11.4501 6.70888 11.5155 5.91709 11.7934 5.18922C11.9783 4.69386 12.2651 4.24282 12.6353 3.86528C13.0055 3.48774 13.4508 3.19209 13.9425 2.99747C14.4093 2.8021 14.9104 2.70205 15.4165 2.70322H15.7657L13.2674 5.2786V6.2356L15.873 8.82885H16.7805L19.3201 6.33185V6.6866ZM4.45498 9.19597H6.5601L7.52948 10.1818L8.46173 9.2551L7.54735 8.32285V8.26372L7.62573 5.99635L7.32323 5.39547L3.39073 2.80772L2.5781 2.89847L1.43548 4.06585L1.34473 4.88947L3.87198 8.90172L4.45498 9.19597ZM3.1556 4.20197L6.33735 6.29747L6.28373 7.8416H4.80423L2.75273 4.59385L3.1556 4.20197ZM12.925 13.772L13.8517 12.8466L18.1225 17.226C18.4822 17.604 18.6828 18.1059 18.6828 18.6278C18.6828 19.1496 18.4822 19.6515 18.1225 20.0296C17.852 20.3073 17.5042 20.4971 17.1243 20.5744C16.7444 20.6516 16.3501 20.6127 15.9926 20.4627C15.7645 20.3615 15.5599 20.214 15.3917 20.0296L11.0715 15.6255L12.0051 14.6932L16.3116 19.085C16.3695 19.1488 16.4416 19.1983 16.522 19.2293C16.6802 19.2936 16.8573 19.2936 17.0156 19.2293C17.096 19.1982 17.168 19.1488 17.226 19.085C17.2862 19.0254 17.333 18.9537 17.3635 18.8746C17.395 18.7939 17.4118 18.7082 17.413 18.6216C17.4116 18.5351 17.3953 18.4495 17.3649 18.3686C17.3344 18.2895 17.2875 18.2178 17.2274 18.1582L12.925 13.772Z" fill="#3A58B7"/>
</svg>
