<svg width="28" height="25" viewBox="0 0 28 25" fill="none" xmlns="http://www.w3.org/2000/svg">
<path d="M12.5886 6.25H15.2499V15H12.5886V6.25ZM12.5886 16.25H15.2499V18.75H12.5886V16.25Z" fill="#7971EA"/>
<path d="M26.8358 6.61625L20.1826 0.366251C20.0592 0.249948 19.9126 0.157713 19.7511 0.0948567C19.5897 0.0320002 19.4166 -0.000236811 19.2418 1.30959e-06H8.59666C8.42189 -0.000236811 8.2488 0.0320002 8.08734 0.0948567C7.92588 0.157713 7.77926 0.249948 7.6559 0.366251L1.00267 6.61625C0.878867 6.73213 0.780681 6.86987 0.713769 7.02154C0.646858 7.17322 0.612541 7.33582 0.612794 7.5V17.5C0.612794 17.8325 0.752512 18.15 1.00267 18.3838L7.6559 24.6338C7.77926 24.7501 7.92588 24.8423 8.08734 24.9051C8.2488 24.968 8.42189 25.0002 8.59666 25H19.2418C19.5958 25 19.9338 24.8688 20.1826 24.6338L26.8358 18.3838C26.9596 18.2679 27.0578 18.1301 27.1247 17.9785C27.1916 17.8268 27.226 17.6642 27.2257 17.5V7.5C27.226 7.33582 27.1916 7.17322 27.1247 7.02154C27.0578 6.86987 26.9596 6.73213 26.8358 6.61625ZM24.5644 16.9825L18.6909 22.5H9.14755L3.27408 16.9825V8.0175L9.14755 2.5H18.6909L24.5644 8.0175V16.9825Z" fill="#7971EA"/>
</svg>
