<svg width="24" height="24" viewBox="0 0 24 24" fill="none" xmlns="http://www.w3.org/2000/svg">
<path d="M22 12.0002C22 11.4319 21.7569 10.8869 21.3241 10.485C20.8913 10.0832 20.3043 9.85742 19.6923 9.85742H12.7692V9.05387C13.4295 8.89463 14.0142 8.53653 14.4318 8.03568C14.8494 7.53482 15.0763 6.91949 15.0769 6.28608C15.0769 3.78614 12.5346 2.18707 12.4269 2.1201C12.3005 2.04179 12.152 2 12 2C11.848 2 11.6995 2.04179 11.5731 2.1201C11.4654 2.18707 8.92308 3.78614 8.92308 6.28608C8.92372 6.91949 9.15061 7.53482 9.56821 8.03568C9.98581 8.53653 10.5705 8.89463 11.2308 9.05387V9.85742H4.30769C3.69565 9.85742 3.10868 10.0832 2.67591 10.485C2.24313 10.8869 2 11.4319 2 12.0002V14.0832C2.00079 14.8624 2.27037 15.6209 2.76923 16.2475V19.8572C2.76923 20.4255 3.01236 20.9705 3.44514 21.3724C3.87791 21.7742 4.46489 22 5.07692 22H18.9231C19.5351 22 20.1221 21.7742 20.5549 21.3724C20.9876 20.9705 21.2308 20.4255 21.2308 19.8572V16.2475C21.7296 15.6209 21.9992 14.8624 22 14.0832V12.0002ZM10.4615 6.28608C10.4615 5.0745 11.4231 4.1022 12 3.62632C12.5769 4.1022 13.5385 5.0745 13.5385 6.28608C13.5385 6.66495 13.3764 7.0283 13.0879 7.29621C12.7993 7.56411 12.408 7.71462 12 7.71462C11.592 7.71462 11.2007 7.56411 10.9121 7.29621C10.6236 7.0283 10.4615 6.66495 10.4615 6.28608ZM3.53846 12.0002C3.53846 11.8108 3.61951 11.6291 3.76376 11.4952C3.90802 11.3612 4.10368 11.286 4.30769 11.286H19.6923C19.8963 11.286 20.092 11.3612 20.2362 11.4952C20.3805 11.6291 20.4615 11.8108 20.4615 12.0002V14.0832C20.4615 15.2662 19.4558 16.2537 18.2192 16.285C17.9108 16.2931 17.6038 16.2437 17.3162 16.1397C17.0287 16.0357 16.7666 15.8792 16.5454 15.6795C16.3241 15.4798 16.1482 15.241 16.0281 14.9771C15.908 14.7131 15.8462 14.4295 15.8462 14.143C15.8462 13.9536 15.7651 13.7719 15.6209 13.638C15.4766 13.504 15.2809 13.4288 15.0769 13.4288C14.8729 13.4288 14.6773 13.504 14.533 13.638C14.3887 13.7719 14.3077 13.9536 14.3077 14.143C14.3077 14.7113 14.0646 15.2564 13.6318 15.6582C13.199 16.0601 12.612 16.2858 12 16.2858C11.388 16.2858 10.801 16.0601 10.3682 15.6582C9.93544 15.2564 9.69231 14.7113 9.69231 14.143C9.69231 13.9536 9.61126 13.7719 9.46701 13.638C9.32275 13.504 9.12709 13.4288 8.92308 13.4288C8.71906 13.4288 8.52341 13.504 8.37915 13.638C8.23489 13.7719 8.15385 13.9536 8.15385 14.143C8.15397 14.4296 8.09218 14.7133 7.97214 14.9773C7.8521 15.2413 7.67625 15.4803 7.45499 15.6801C7.23373 15.8799 6.97155 16.0365 6.68398 16.1405C6.3964 16.2445 6.08928 16.294 5.78077 16.2858C4.54423 16.2537 3.53846 15.2662 3.53846 14.0832V12.0002ZM18.9231 20.5715H5.07692C4.87291 20.5715 4.67725 20.4962 4.53299 20.3623C4.38874 20.2283 4.30769 20.0466 4.30769 19.8572V17.4072C4.75797 17.5967 5.24432 17.7011 5.73846 17.7144C6.25255 17.7292 6.76457 17.6474 7.24375 17.4739C7.72293 17.3004 8.1594 17.0387 8.52692 16.7046C8.67042 16.5747 8.80287 16.4347 8.92308 16.2858C9.28133 16.7294 9.74589 17.0894 10.2799 17.3373C10.814 17.5853 11.4029 17.7144 12 17.7144C12.5971 17.7144 13.186 17.5853 13.7201 17.3373C14.2541 17.0894 14.7187 16.7294 15.0769 16.2858C15.1975 16.4341 15.3303 16.5735 15.474 16.7028C16.1896 17.3536 17.1522 17.717 18.1538 17.7144H18.2635C18.7569 17.7009 19.2426 17.5965 19.6923 17.4072V19.8572C19.6923 20.0466 19.6113 20.2283 19.467 20.3623C19.3227 20.4962 19.1271 20.5715 18.9231 20.5715Z" fill="black"/>
</svg>
