<svg width="128" height="128" viewBox="0 0 128 128" fill="none" xmlns="http://www.w3.org/2000/svg">
<path d="M97 37.0002H31C30.4696 37.0002 29.9609 37.211 29.5858 37.586C29.2107 37.9611 29 38.4698 29 39.0002C29 39.5307 29.2107 40.0394 29.5858 40.4145C29.9609 40.7895 30.4696 41.0002 31 41.0002H97C97.5304 41.0002 98.0391 40.7895 98.4142 40.4145C98.7893 40.0394 99 39.5307 99 39.0002C99 38.4698 98.7893 37.9611 98.4142 37.586C98.0391 37.211 97.5304 37.0002 97 37.0002ZM99 49.0004C99 48.4699 98.7893 47.9612 98.4142 47.5862C98.0391 47.2111 97.5304 47.0004 97 47.0004H31C30.4696 47.0004 29.9609 47.2111 29.5858 47.5861C29.2107 47.9612 29 48.4699 29 49.0004C29 49.5308 29.2107 50.0395 29.5858 50.4146C29.9609 50.7896 30.4696 51.0004 31 51.0004H97C97.5304 51.0003 98.0391 50.7896 98.4142 50.4145C98.7893 50.0395 99 49.5308 99 49.0004ZM61 59.0004C61 58.47 60.7892 57.9613 60.4142 57.5863C60.0391 57.2112 59.5304 57.0005 59 57.0004H31C30.4696 57.0004 29.9609 57.2112 29.5858 57.5862C29.2107 57.9613 29 58.47 29 59.0004C29 59.5309 29.2107 60.0396 29.5858 60.4147C29.9609 60.7897 30.4696 61.0004 31 61.0004H59C59.5304 61.0004 60.0391 60.7897 60.4142 60.4146C60.7892 60.0396 61 59.5309 61 59.0004ZM29 78.0006C29 79.5829 29.4692 81.1296 30.3483 82.4452C31.2273 83.7607 32.4768 84.7861 33.9386 85.3916C35.4004 85.9971 37.0089 86.1555 38.5608 85.8468C40.1126 85.5381 41.5381 84.7762 42.6569 83.6574C43.7757 82.5386 44.5376 81.1131 44.8463 79.5612C45.155 78.0094 44.9965 76.4009 44.391 74.9391C43.7855 73.4773 42.7601 72.2278 41.4446 71.3488C40.129 70.4697 38.5822 70.0005 37 70.0005C34.879 70.003 32.8456 70.8466 31.3458 72.3464C29.846 73.8462 29.0024 75.8796 29 78.0006ZM41 78.0006C41 78.7917 40.7654 79.5651 40.3259 80.2229C39.8864 80.8807 39.2616 81.3934 38.5307 81.6961C37.7998 81.9989 36.9956 82.0781 36.2196 81.9238C35.4437 81.7694 34.731 81.3885 34.1716 80.829C33.6122 80.2696 33.2312 79.5569 33.0769 78.781C32.9225 78.005 33.0017 77.2008 33.3045 76.4699C33.6072 75.739 34.1199 75.1143 34.7777 74.6747C35.4355 74.2352 36.2089 74.0006 37 74.0006C38.0609 74.0006 39.0783 74.422 39.8284 75.1722C40.5786 75.9223 41 76.9397 41 78.0006Z" fill="#A8A8A8"/>
<path d="M122 10H6C4.40923 10.0017 2.88411 10.6345 1.75927 11.7593C0.634426 12.8842 0.00173108 14.4093 0 16L0 98.0008C0.00173108 99.5916 0.634426 101.117 1.75927 102.242C2.88411 103.366 4.40923 103.999 6 104.001H66.598L69.4534 100.001H6C5.46978 100 4.96147 99.7892 4.58655 99.4143C4.21163 99.0394 4.00069 98.5311 4 98.0008V16C4.00069 15.4698 4.21163 14.9615 4.58655 14.5866C4.96147 14.2117 5.46978 14.0007 6 14H122C122.53 14.0007 123.039 14.2117 123.413 14.5866C123.788 14.9615 123.999 15.4698 124 16V98.0008C123.999 98.531 123.788 99.0393 123.413 99.4143C123.039 99.7892 122.53 100 122 100.001H108.547L111.403 104.001H122C123.591 103.999 125.116 103.366 126.241 102.241C127.366 101.117 127.998 99.5915 128 98.0007V16C127.998 14.4093 127.366 12.8842 126.241 11.7593C125.116 10.6345 123.591 10.0017 122 10Z" fill="#A8A8A8"/>
<path d="M82.9081 107.339L79.4151 112.17L79.0186 110.214C78.9324 109.538 78.5906 108.921 78.0635 108.489C77.7737 108.252 77.4386 108.077 77.0787 107.975C76.7189 107.872 76.3418 107.844 75.9707 107.892L73.4687 108.144L77.2777 102.808C75.9275 102.536 74.6531 101.972 73.5433 101.156L68.5128 108.203C68.2036 108.623 68.0266 109.126 68.0041 109.648C67.9817 110.169 68.1149 110.685 68.3868 111.131C68.6627 111.581 69.0634 111.941 69.5402 112.167C70.0169 112.394 70.5492 112.477 71.0723 112.406L75.295 111.98L76.0391 115.651C76.1008 116.168 76.3131 116.654 76.6495 117.051C76.9858 117.447 77.4314 117.736 77.9307 117.881C78.191 117.96 78.4615 118 78.7335 118C79.1636 118 79.5878 117.899 79.9718 117.705C80.3557 117.511 80.6885 117.229 80.9435 116.883L88.1399 106.928C87.0906 107.354 85.9712 107.581 84.8389 107.598C84.1868 107.596 83.5377 107.509 82.9081 107.339ZM104.457 101.156C103.347 101.972 102.072 102.536 100.722 102.808L104.531 108.144L102.029 107.892C101.658 107.844 101.281 107.872 100.921 107.975C100.561 108.077 100.226 108.252 99.9365 108.489C99.4094 108.921 99.0677 109.538 98.9815 110.214L98.585 112.169L95.0853 107.329C93.3441 107.76 91.5102 107.618 89.8564 106.923L97.0664 116.896C97.3209 117.24 97.6526 117.519 98.0346 117.71C98.4166 117.902 98.8383 118.001 99.2657 118C99.538 118 99.8088 117.96 100.069 117.881C100.569 117.736 101.014 117.447 101.351 117.051C101.687 116.654 101.899 116.168 101.961 115.651L102.705 111.98L106.928 112.406C107.451 112.477 107.983 112.394 108.46 112.168C108.937 111.941 109.338 111.581 109.613 111.131C109.884 110.689 110.018 110.177 109.998 109.659C109.978 109.141 109.805 108.641 109.501 108.222L104.457 101.156ZM94.2549 103.423C95.5671 102.851 96.6034 101.789 97.1417 100.463C97.3255 100.08 97.5515 99.7197 97.8155 99.3875C98.2212 99.2314 98.6436 99.1226 99.0743 99.0633C99.7868 99.0815 100.493 98.9265 101.133 98.6117C101.772 98.2968 102.326 97.8316 102.746 97.2558C103.166 96.68 103.44 96.0108 103.545 95.3058C103.649 94.6007 103.581 93.8808 103.347 93.2078C103.269 92.7745 103.242 92.3337 103.267 91.8943C103.496 91.5489 103.764 91.2299 104.064 90.9431C105.169 90.0141 105.864 88.6879 106 87.2507C105.864 85.8135 105.169 84.4873 104.064 83.5583C103.766 83.2731 103.5 82.9569 103.27 82.6149C103.242 82.173 103.268 81.7294 103.347 81.2936C103.69 79.9223 103.476 78.4709 102.753 77.2565C101.815 76.1881 100.493 75.5343 99.0743 75.4381C98.6459 75.3786 98.2257 75.2712 97.8214 75.1178C97.5543 74.7847 97.3259 74.4223 97.1407 74.0377C96.6029 72.7115 95.5665 71.6491 94.254 71.0787C92.8877 70.7719 91.4556 71.0165 90.2686 71.7593C89.8681 71.9757 89.4419 72.1408 89.0001 72.2506C88.5583 72.1408 88.1321 71.9757 87.7315 71.7593C86.544 71.017 85.1118 70.7724 83.7452 71.0787C82.433 71.65 81.3968 72.7126 80.8585 74.0387C80.6747 74.4211 80.4487 74.7817 80.1846 75.1139C79.7789 75.27 79.3565 75.3788 78.9258 75.4381C77.5076 75.5339 76.185 76.1874 75.2471 77.2555C74.5237 78.4703 74.3102 79.922 74.6534 81.2936C74.7308 81.7269 74.7577 82.1677 74.7335 82.6071C74.5037 82.9526 74.2364 83.2715 73.9366 83.5583C72.8315 84.4873 72.136 85.8135 72.0001 87.2507C72.136 88.688 72.8315 90.0141 73.9366 90.9431C74.2342 91.2283 74.5004 91.5445 74.7305 91.8865C74.7577 92.3284 74.7318 92.772 74.6534 93.2078C74.4188 93.8808 74.351 94.6007 74.4558 95.3057C74.5605 96.0106 74.8347 96.6797 75.2548 97.2554C75.6749 97.8312 76.2284 98.2965 76.8677 98.6113C77.5071 98.9262 78.2134 99.0813 78.9258 99.0633C79.3542 99.1227 79.7745 99.2302 80.1788 99.3836C80.4458 99.7167 80.6742 100.079 80.8594 100.464C81.3972 101.79 82.4337 102.852 83.7462 103.423C84.1019 103.538 84.4737 103.597 84.8477 103.596C85.8603 103.528 86.8452 103.236 87.7315 102.742C88.132 102.526 88.5583 102.361 89.0001 102.251C89.4419 102.361 89.8681 102.526 90.2686 102.742C91.4562 103.484 92.8884 103.729 94.2549 103.423ZM86.0245 99.1248C85.6877 99.2941 85.3403 99.4412 84.9845 99.5653C84.7571 99.2422 84.5528 98.9034 84.3731 98.5516C84.0026 97.5877 83.3608 96.7519 82.5253 96.1451C81.6898 95.5384 80.6963 95.1867 79.6651 95.1326C79.2789 95.0698 78.8975 94.9803 78.5236 94.865C78.5297 94.4791 78.5623 94.0941 78.6212 93.7127C78.8223 92.6986 78.793 91.6523 78.5353 90.6511C78.1626 89.7131 77.5823 88.8717 76.838 88.1901C76.545 87.8994 76.2762 87.5852 76.0343 87.2506C76.2762 86.9161 76.545 86.6019 76.838 86.3112C77.5823 85.6296 78.1626 84.7882 78.5353 83.8502C78.793 82.8487 78.8223 81.802 78.6212 80.7877C78.5627 80.4062 78.5301 80.0212 78.5236 79.6353C78.8976 79.5208 79.279 79.4317 79.6651 79.3687C80.6966 79.3155 81.6904 78.9641 82.5261 78.3573C83.3618 77.7504 84.0034 76.914 84.3731 75.9497C84.5527 75.5978 84.757 75.259 84.9845 74.936C85.3403 75.0601 85.6877 75.2072 86.0245 75.3765C86.912 75.9471 87.9449 76.2505 89.0001 76.2505C90.0552 76.2505 91.0881 75.9471 91.9756 75.3765C92.3124 75.2072 92.6598 75.0601 93.0156 74.936C93.243 75.2591 93.4473 75.5979 93.627 75.9497C93.9975 76.9135 94.6393 77.7494 95.4748 78.3562C96.3104 78.9629 97.3038 79.3146 98.335 79.3687C98.7212 79.4315 99.1026 79.5209 99.4766 79.6363C99.4704 80.0222 99.4378 80.4072 99.3789 80.7886C99.1778 81.8027 99.2071 82.849 99.4649 83.8502C99.8375 84.7882 100.418 85.6296 101.162 86.3112C101.455 86.6019 101.724 86.9161 101.966 87.2506C101.724 87.5852 101.455 87.8994 101.162 88.1901C100.418 88.8717 99.8375 89.7131 99.4649 90.6511C99.2072 91.6526 99.1778 92.6992 99.3789 93.7136C99.4374 94.0951 99.47 94.4801 99.4766 94.866C99.1025 94.9805 98.7211 95.0696 98.335 95.1326C97.3035 95.1858 96.3097 95.5371 95.474 96.144C94.6384 96.7509 93.9967 97.5872 93.627 98.5516C93.4474 98.9035 93.2431 99.2423 93.0156 99.5653C92.6598 99.4412 92.3124 99.2941 91.9756 99.1248C91.0881 98.5542 90.0552 98.2508 89.0001 98.2508C87.9449 98.2508 86.912 98.5542 86.0245 99.1248Z" fill="#A8A8A8"/>
<path d="M96 87.2507C96 85.8662 95.5894 84.5128 94.8203 83.3617C94.0511 82.2106 92.9578 81.3134 91.6787 80.7836C90.3997 80.2538 88.9922 80.1151 87.6343 80.3852C86.2765 80.6553 85.0292 81.322 84.0502 82.301C83.0713 83.28 82.4046 84.5273 82.1345 85.8851C81.8644 87.243 82.003 88.6505 82.5329 89.9295C83.0627 91.2086 83.9599 92.3019 85.111 93.071C86.2622 93.8402 87.6155 94.2507 89 94.2507C90.8558 94.2485 92.635 93.5103 93.9473 92.198C95.2596 90.8857 95.9978 89.1065 96 87.2507ZM89 90.2507C88.4067 90.2507 87.8266 90.0747 87.3333 89.7451C86.8399 89.4154 86.4554 88.9469 86.2284 88.3987C86.0013 87.8505 85.9419 87.2473 86.0577 86.6654C86.1734 86.0835 86.4591 85.5489 86.8787 85.1294C87.2982 84.7098 87.8328 84.4241 88.4147 84.3083C88.9967 84.1926 89.5999 84.252 90.1481 84.479C90.6962 84.7061 91.1648 85.0906 91.4944 85.584C91.8241 86.0773 92 86.6573 92 87.2507C91.9991 88.0461 91.6828 88.8086 91.1204 89.3711C90.5579 89.9335 89.7954 90.2498 89 90.2507Z" fill="#A8A8A8"/>
<path d="M116 96.0008C117.061 95.9997 118.077 95.578 118.827 94.828C119.577 94.0781 119.999 93.0613 120 92.0008V22.0001C119.999 20.9396 119.577 19.9228 118.827 19.1729C118.077 18.4229 117.061 18.0012 116 18.0001H12C10.9395 18.0012 9.92266 18.4229 9.17274 19.1729C8.42283 19.9228 8.00106 20.9396 8 22.0001V92.0007C8.00106 93.0613 8.42283 94.0781 9.17274 94.828C9.92266 95.5779 10.9395 95.9997 12 96.0007H70.6074C70.5011 95.0873 70.5047 94.1644 70.6182 93.2518C70.2543 92.8556 69.9146 92.4378 69.601 92.0007H12V37.5784L27.4141 22.1642C27.4616 22.1119 27.5064 22.0572 27.5481 22.0001H100.452C100.494 22.0572 100.538 22.1119 100.586 22.1642L116.001 37.579L116.003 92.0007H108.399C108.085 92.4377 107.746 92.8555 107.382 93.2517C107.495 94.1643 107.499 95.0872 107.393 96.0007L116 96.0008ZM12 31.9221V22.0001H21.9219L12 31.9221ZM106.078 22.0001H116L116 31.9225L106.078 22.0001Z" fill="#A8A8A8"/>
</svg>
