<svg width="40" height="40" viewBox="0 0 40 40" fill="none" xmlns="http://www.w3.org/2000/svg">
<path d="M39.5713 24.2022L27.3443 4.1554C27.0886 3.74335 26.7316 3.40363 26.3075 3.16857C25.8833 2.93351 25.406 2.81093 24.9211 2.81252H15.0763C14.5916 2.8109 14.1145 2.93347 13.6906 3.16855C13.2667 3.40363 12.9101 3.74338 12.6548 4.1554L12.6459 4.1679L0.434961 24.1879C0.16107 24.6257 0.0109535 25.1295 0.000576993 25.6458C-0.00979954 26.1622 0.119952 26.6716 0.376032 27.1201L5.25468 35.6595C5.5046 36.0967 5.86564 36.4601 6.30123 36.7129C6.73681 36.9656 7.23147 37.0988 7.73508 37.0988H32.2623C32.7659 37.0988 33.2605 36.9656 33.6961 36.7129C34.1317 36.4601 34.4927 36.0967 34.7427 35.6595L39.6213 27.1201C39.8777 26.6747 40.0084 26.1681 39.9996 25.6542C39.9908 25.1404 39.8428 24.6385 39.5713 24.2022ZM36.2498 24.2415H27.9497L21.6657 13.7645L25.7282 6.99294L36.2498 24.2415ZM13.6655 27.0986H26.3336L30.6194 34.2416H9.37975L13.6655 27.0986ZM15.3798 24.2415L19.9996 16.5413L24.6193 24.2415H15.3798ZM14.2691 6.99294L18.3335 13.7645L12.0476 24.2415H3.7493L14.2691 6.99294Z" fill="#FFFBFE"/>
</svg>
