<svg width="24" height="24" viewBox="0 0 24 24" fill="none" xmlns="http://www.w3.org/2000/svg">
<path d="M16.58 3.90476H13V2H20V8.66667H18V5.24762L14.17 8.89524C14.6219 9.54517 14.8994 10.2908 14.9781 11.0668C15.0568 11.8427 14.9343 12.6251 14.6213 13.3454C14.3083 14.0657 13.8144 14.7018 13.183 15.1979C12.5516 15.6939 11.802 16.0348 11 16.1905V18.1905H13V20.0952H11V22H9V20.0952H7V18.1905H9V16.1905C7.87064 15.9709 6.8556 15.3865 6.12669 14.5361C5.39778 13.6857 4.99976 12.6216 5 11.5238C5 10.2609 5.52678 9.04966 6.46447 8.15663C7.40215 7.2636 8.67392 6.7619 10 6.7619C11 6.7619 11.96 7.04762 12.75 7.55238L16.58 3.90476ZM10 8.66667C9.20435 8.66667 8.44129 8.96769 7.87868 9.5035C7.31607 10.0393 7 10.766 7 11.5238C7 12.2816 7.31607 13.0083 7.87868 13.5441C8.44129 14.0799 9.20435 14.381 10 14.381C10.7956 14.381 11.5587 14.0799 12.1213 13.5441C12.6839 13.0083 13 12.2816 13 11.5238C13 10.766 12.6839 10.0393 12.1213 9.5035C11.5587 8.96769 10.7956 8.66667 10 8.66667Z" fill="black"/>
</svg>
