<svg width="24" height="24" viewBox="0 0 24 24" fill="none" xmlns="http://www.w3.org/2000/svg">
<path d="M12 2C6.4774 2 2 6.4774 2 12C2 17.5226 6.4774 22 12 22C17.5226 22 22 17.5226 22 12C22 6.4774 17.5226 2 12 2Z" stroke="black" stroke-miterlimit="10"/>
<path d="M11.9999 2C9.20807 2 6.58307 6.4774 6.58307 12C6.58307 17.5226 9.20807 22 11.9999 22C14.7917 22 17.4167 17.5226 17.4167 12C17.4167 6.4774 14.7917 2 11.9999 2Z" stroke="black" stroke-miterlimit="10"/>
<path d="M5.33301 5.33301C7.17147 6.6383 9.48589 7.41666 11.9998 7.41666C14.5138 7.41666 16.8282 6.6383 18.6667 5.33301M18.6667 18.6667C16.8282 17.3614 14.5138 16.583 11.9998 16.583C9.48589 16.583 7.17147 17.3614 5.33301 18.6667" stroke="black" stroke-linecap="round" stroke-linejoin="round"/>
<path d="M12 2V22M22 12H2" stroke="black" stroke-miterlimit="10"/>
</svg>
