<svg width="22" height="22" viewBox="0 0 22 22" fill="none" xmlns="http://www.w3.org/2000/svg">
<path fill-rule="evenodd" clip-rule="evenodd" d="M19.3599 9.34995H11.1099V12.65H15.9499C15.5099 14.96 13.4199 16.5 11.1099 16.39C8.24992 16.28 6.04992 14.08 5.93992 11.22C5.82992 8.24995 8.13992 5.71995 11.1099 5.60995C12.3199 5.60995 13.5299 6.04995 14.5199 6.92995L17.0499 4.50995C15.5099 2.96995 13.3099 2.19995 11.2199 2.19995C6.37992 2.19995 2.41992 6.15995 2.41992 11C2.41992 15.84 6.37992 19.8 11.2199 19.8C16.2799 19.8 19.6899 16.28 19.6899 11.22C19.5799 10.56 19.5799 10.01 19.3599 9.34995Z" fill="#3A58B7"/>
</svg>
