<svg width="24" height="24" viewBox="0 0 24 24" fill="none" xmlns="http://www.w3.org/2000/svg">
<path d="M12 8V12L14.5 14.5" stroke="black" stroke-width="1.5" stroke-linecap="round" stroke-linejoin="round"/>
<path d="M4.14186 6.73956L3.37264 6.74264C3.37345 6.9454 3.45429 7.13965 3.59757 7.28313C3.74085 7.4266 3.93499 7.5077 4.13776 7.50878L4.14186 6.73956ZM6.74901 7.52109C6.85002 7.52156 6.95014 7.50213 7.04365 7.46391C7.13715 7.42569 7.22222 7.36942 7.29398 7.29833C7.36574 7.22723 7.4228 7.1427 7.46189 7.04955C7.50098 6.95641 7.52134 6.85647 7.52182 6.75546C7.52229 6.65444 7.50286 6.55432 7.46464 6.46082C7.42641 6.36731 7.37015 6.28225 7.29905 6.21048C7.22796 6.13872 7.14342 6.08167 7.05028 6.04257C6.95713 6.00348 6.8572 5.98312 6.75618 5.98265L6.74901 7.52109ZM4.89775 4.12421C4.89721 4.02319 4.87678 3.92327 4.83763 3.83015C4.79847 3.73703 4.74136 3.65254 4.66955 3.58149C4.59774 3.51044 4.51264 3.45424 4.41911 3.41608C4.32557 3.37792 4.22544 3.35855 4.12443 3.35909C4.02341 3.35963 3.92349 3.38006 3.83037 3.41922C3.73725 3.45837 3.65275 3.51548 3.58171 3.58729C3.51066 3.6591 3.45445 3.7442 3.41629 3.83773C3.37813 3.93127 3.35877 4.0314 3.35931 4.13242L4.89775 4.12421ZM3.61777 10.7539C3.6325 10.6533 3.62718 10.5509 3.6021 10.4524C3.57702 10.3539 3.53268 10.2614 3.47164 10.1802C3.41061 10.099 3.33408 10.0306 3.24649 9.97914C3.15889 9.92766 3.06196 9.89403 2.9613 9.88021C2.86064 9.86639 2.75823 9.87265 2.66 9.89863C2.56177 9.92461 2.46966 9.96979 2.389 10.0316C2.30833 10.0933 2.24069 10.1705 2.19001 10.2586C2.13932 10.3466 2.10658 10.4439 2.09368 10.5446L3.61777 10.7539ZM19.0381 4.96215C15.1202 1.04425 8.78898 1.00323 4.89672 4.89651L5.98389 5.98367C9.26589 2.70269 14.6227 2.72218 17.9509 6.04931L19.0381 4.96215ZM4.96236 19.0379C8.88026 22.9557 15.2115 22.9968 19.1037 19.1035L18.0165 18.0163C14.7345 21.2973 9.37769 21.2778 6.04953 17.9507L4.96236 19.0379ZM19.1037 19.1035C22.996 15.2112 22.956 8.88004 19.0381 4.96215L17.9509 6.04931C21.278 9.37747 21.2975 14.7343 18.0165 18.0163L19.1037 19.1035ZM4.89672 4.89651L3.59725 6.19495L4.68544 7.28212L5.98389 5.98367L4.89672 4.89651ZM4.13776 7.50878L6.74901 7.52109L6.75618 5.98265L4.14596 5.97034L4.13776 7.50878ZM4.91108 6.73546L4.89775 4.12421L3.35931 4.13242L3.37264 6.74264L4.91108 6.73546ZM2.09266 10.5436C1.88206 12.0848 2.0316 13.6538 2.52951 15.1274C3.02743 16.6011 3.86018 17.9403 4.96236 19.0379L6.04953 17.9507C5.11541 17.0207 4.40966 15.8858 3.98772 14.6371C3.56578 13.3883 3.43914 12.0598 3.61777 10.7539L2.09266 10.5436Z" fill="black"/>
</svg>
