<svg width="24" height="24" viewBox="0 0 24 24" fill="none" xmlns="http://www.w3.org/2000/svg">
<path d="M10.855 2.42013C11.1644 2.15033 11.5741 2 12 2C12.4259 2 12.8356 2.15033 13.145 2.42013L21.2183 9.45806C21.7183 9.89303 22 10.5001 22 11.1334V19.6945C22 20.306 21.7366 20.8924 21.2678 21.3247C20.7989 21.7571 20.163 22 19.5 22H16.1667C15.8382 22 15.513 21.9403 15.2096 21.8244C14.9061 21.7084 14.6305 21.5384 14.3983 21.3242C14.1661 21.1099 13.982 20.8556 13.8565 20.5757C13.731 20.2958 13.6664 19.9959 13.6667 19.693V15.8505C13.6667 15.6466 13.5789 15.4512 13.4226 15.307C13.2663 15.1629 13.0543 15.082 12.8333 15.082H11.1667C10.9457 15.082 10.7337 15.1629 10.5774 15.307C10.4211 15.4512 10.3333 15.6466 10.3333 15.8505V19.693C10.3333 20.3044 10.0699 20.8908 9.6011 21.3232C9.13226 21.7556 8.49637 21.9985 7.83333 21.9985H4.5C3.83696 21.9985 3.20107 21.7556 2.73223 21.3232C2.26339 20.8908 2 20.3044 2 19.693V11.1319C2 10.4986 2.28333 9.8915 2.78333 9.45652L10.855 2.41705V2.42013ZM12 3.53599L3.92667 10.5755C3.84471 10.6471 3.7794 10.7334 3.7347 10.829C3.69001 10.9247 3.66686 11.0277 3.66667 11.1319V19.693C3.66667 19.8968 3.75446 20.0923 3.91074 20.2364C4.06702 20.3805 4.27899 20.4615 4.5 20.4615H7.83333C8.05435 20.4615 8.26631 20.3805 8.42259 20.2364C8.57887 20.0923 8.66667 19.8968 8.66667 19.693V15.8505C8.66667 15.239 8.93006 14.6526 9.3989 14.2202C9.86774 13.7879 10.5036 13.545 11.1667 13.545H12.8333C13.4964 13.545 14.1323 13.7879 14.6011 14.2202C15.0699 14.6526 15.3333 15.239 15.3333 15.8505V19.693C15.3333 19.8968 15.4211 20.0923 15.5774 20.2364C15.7337 20.3805 15.9457 20.4615 16.1667 20.4615H19.5C19.721 20.4615 19.933 20.3805 20.0893 20.2364C20.2455 20.0923 20.3333 19.8968 20.3333 19.693V11.1319C20.3334 11.0274 20.3103 10.9241 20.2656 10.8282C20.2209 10.7323 20.1555 10.6458 20.0733 10.5739L12 3.53599Z" fill="black"/>
</svg>
