<svg width="24" height="24" viewBox="0 0 24 24" fill="none" xmlns="http://www.w3.org/2000/svg">
<path d="M12 12.1911C12.55 12.1911 13.021 11.9913 13.413 11.5918C13.805 11.1924 14.0007 10.7127 14 10.1529C14 9.59236 13.804 9.11236 13.412 8.71287C13.02 8.31338 12.5493 8.11397 12 8.11465C11.45 8.11465 10.979 8.3144 10.587 8.71389C10.195 9.11338 9.99933 9.59304 10 10.1529C10 10.7134 10.196 11.1934 10.588 11.5929C10.98 11.9924 11.4507 12.1918 12 12.1911ZM12 19.6815C14.0333 17.7792 15.5417 16.0508 16.525 14.4963C17.5083 12.9418 18 11.562 18 10.3567C18 8.50531 17.4207 6.98955 16.262 5.80943C15.1033 4.6293 13.6827 4.0389 12 4.03822C10.3167 4.03822 8.89567 4.62862 7.737 5.80943C6.57833 6.99023 5.99933 8.50599 6 10.3567C6 11.5626 6.49167 12.9428 7.475 14.4973C8.45833 16.0518 9.96667 17.7799 12 19.6815ZM12 22C11.8667 22 11.7333 21.9745 11.6 21.9236C11.4667 21.8726 11.35 21.8047 11.25 21.7197C8.81667 19.5287 7 17.4945 5.8 15.6173C4.6 13.7401 4 11.9866 4 10.3567C4 7.80892 4.80433 5.77919 6.413 4.26752C8.02167 2.75584 9.884 2 12 2C14.1167 2 15.9793 2.75584 17.588 4.26752C19.1967 5.77919 20.0007 7.80892 20 10.3567C20 11.9873 19.4 13.7411 18.2 15.6183C17 17.4955 15.1833 19.5293 12.75 21.7197C12.65 21.8047 12.5333 21.8726 12.4 21.9236C12.2667 21.9745 12.1333 22 12 22Z" fill="black"/>
</svg>
