<svg width="24" height="24" viewBox="0 0 24 24" fill="none" xmlns="http://www.w3.org/2000/svg">
<path d="M13.1538 11.9969C13.1538 12.2251 13.0862 12.4482 12.9594 12.638C12.8326 12.8277 12.6524 12.9756 12.4416 13.063C12.2307 13.1503 11.9987 13.1732 11.7749 13.1286C11.5511 13.0841 11.3455 12.9742 11.1841 12.8128C11.0227 12.6514 10.9128 12.4458 10.8683 12.222C10.8238 11.9981 10.8467 11.7661 10.934 11.5553C11.0213 11.3444 11.1692 11.1642 11.359 11.0374C11.5487 10.9106 11.7718 10.8429 12 10.8429C12.306 10.8429 12.5995 10.9645 12.8159 11.1809C13.0323 11.3973 13.1538 11.6908 13.1538 11.9969ZM7.76923 10.8429C7.54102 10.8429 7.31794 10.9106 7.12819 11.0374C6.93844 11.1642 6.79055 11.3444 6.70322 11.5553C6.61588 11.7661 6.59303 11.9981 6.63756 12.222C6.68208 12.4458 6.79197 12.6514 6.95334 12.8128C7.11471 12.9742 7.3203 13.0841 7.54413 13.1286C7.76795 13.1732 7.99995 13.1503 8.21079 13.063C8.42163 12.9756 8.60183 12.8277 8.72862 12.638C8.85541 12.4482 8.92308 12.2251 8.92308 11.9969C8.92308 11.6908 8.80151 11.3973 8.58512 11.1809C8.36874 10.9645 8.07525 10.8429 7.76923 10.8429ZM16.2308 10.8429C16.0026 10.8429 15.7795 10.9106 15.5897 11.0374C15.4 11.1642 15.2521 11.3444 15.1648 11.5553C15.0774 11.7661 15.0546 11.9981 15.0991 12.222C15.1436 12.4458 15.2535 12.6514 15.4149 12.8128C15.5762 12.9742 15.7818 13.0841 16.0057 13.1286C16.2295 13.1732 16.4615 13.1503 16.6723 13.063C16.8832 12.9756 17.0634 12.8277 17.1902 12.638C17.3169 12.4482 17.3846 12.2251 17.3846 11.9969C17.3846 11.6908 17.263 11.3973 17.0467 11.1809C16.8303 10.9645 16.5368 10.8429 16.2308 10.8429ZM22 11.9969C22.0004 13.7235 21.5538 15.4208 20.7036 16.9236C19.8535 18.4264 18.6288 19.6835 17.1488 20.5725C15.6687 21.4615 13.9837 21.9522 12.2578 21.9967C10.5319 22.0412 8.8239 21.6381 7.3 20.8265L4.02596 21.918C3.75489 22.0084 3.464 22.0215 3.18589 21.9559C2.90778 21.8903 2.65345 21.7484 2.4514 21.5464C2.24934 21.3443 2.10755 21.0899 2.04192 20.8118C1.97629 20.5337 1.98941 20.2428 2.07981 19.9717L3.17115 16.6973C2.45783 15.3561 2.05942 13.8699 2.00615 12.3517C1.95288 10.8334 2.24616 9.32301 2.86372 7.93506C3.48128 6.5471 4.4069 5.31809 5.57031 4.34131C6.73371 3.36453 8.10434 2.66565 9.57814 2.29773C11.0519 1.92981 12.5902 1.90251 14.0761 2.21791C15.562 2.53331 16.9566 3.18311 18.1539 4.118C19.3513 5.05288 20.3199 6.24828 20.9863 7.61345C21.6527 8.97862 21.9994 10.4777 22 11.9969ZM20.4615 11.9969C20.4612 10.6988 20.1622 9.41818 19.5878 8.25414C19.0134 7.0901 18.1789 6.07382 17.1489 5.28394C16.1189 4.49405 14.921 3.95173 13.6479 3.69893C12.3748 3.44614 11.0606 3.48964 9.80695 3.82607C8.55335 4.16251 7.39394 4.78285 6.41842 5.63912C5.4429 6.49539 4.67742 7.56463 4.18121 8.76411C3.685 9.96359 3.47136 11.2612 3.55682 12.5564C3.64228 13.8517 4.02454 15.1099 4.67404 16.2338C4.72855 16.3282 4.7624 16.433 4.77334 16.5414C4.78428 16.6499 4.77206 16.7594 4.7375 16.8627L3.53846 20.4592L7.13462 19.2601C7.21294 19.2333 7.29513 19.2197 7.37788 19.2197C7.51298 19.2199 7.64564 19.2557 7.7625 19.3235C9.04885 20.0678 10.5085 20.4602 11.9947 20.4611C13.4808 20.4621 14.941 20.0716 16.2282 19.3289C17.5155 18.5862 18.5845 17.5175 19.3277 16.2304C20.0708 14.9433 20.4619 13.4831 20.4615 11.9969Z" fill="black"/>
</svg>
