<svg width="24" height="24" viewBox="0 0 24 24" fill="none" xmlns="http://www.w3.org/2000/svg">
<path d="M7.41377 10.14L9.03733 8.7772L10.3982 10.3994L13.6432 7.67703L15.0052 9.29923L10.1377 13.3833L7.41377 10.1389V10.14Z" fill="black"/>
<path fill-rule="evenodd" clip-rule="evenodd" d="M16.4603 4.48128C17.92 5.9406 18.7967 7.88247 18.9258 9.94228C19.0549 12.0021 18.4275 14.0382 17.1614 15.6683C17.1784 15.682 17.1932 15.6969 17.2091 15.7127L21.7027 20.2055C21.8956 20.4053 22.0024 20.6727 22 20.9504C21.9975 21.228 21.8862 21.4936 21.6898 21.6899C21.4934 21.8862 21.2278 21.9976 20.9501 22C20.6725 22.0024 20.4049 21.8957 20.2052 21.7028L15.7115 17.21C15.6963 17.1945 15.6814 17.1787 15.6671 17.1623C13.9645 18.4827 11.8227 19.105 9.67746 18.9026C7.53224 18.7002 5.54472 17.6883 4.11924 16.0727C2.69376 14.4572 1.93741 12.3593 2.00406 10.206C2.0707 8.05268 2.95534 6.00562 4.478 4.48128C5.26475 3.69463 6.19878 3.07062 7.22674 2.64489C8.25471 2.21915 9.35648 2.00003 10.4692 2.00003C11.5818 2.00003 12.6836 2.21915 13.7116 2.64489C14.7395 3.07062 15.6736 3.69463 16.4603 4.48128ZM14.9628 14.9641C15.5607 14.3759 16.0363 13.6752 16.362 12.9024C16.6878 12.1295 16.8572 11.2998 16.8606 10.4611C16.8641 9.62247 16.7014 8.79143 16.3819 8.01595C16.0625 7.24046 15.5927 6.53588 14.9995 5.94285C14.4064 5.34982 13.7017 4.88007 12.926 4.5607C12.1504 4.24134 11.3192 4.07867 10.4804 4.08208C9.64158 4.0855 8.81173 4.25493 8.03873 4.5806C7.26573 4.90627 6.56487 5.38174 5.97658 5.97958C4.80093 7.17432 4.14508 8.78513 4.15191 10.4611C4.15873 12.1371 4.82768 13.7426 6.01302 14.9277C7.19837 16.1128 8.80408 16.7816 10.4804 16.7885C12.1567 16.7953 13.7678 16.1396 14.9628 14.9641Z" fill="black"/>
</svg>
