<svg width="24" height="24" viewBox="0 0 24 24" fill="none" xmlns="http://www.w3.org/2000/svg">
<path d="M20.4615 5.33333H16.6154V4.5C16.6154 3.83696 16.3723 3.20107 15.9395 2.73223C15.5067 2.26339 14.9197 2 14.3077 2H9.69231C9.08027 2 8.4933 2.26339 8.06052 2.73223C7.62775 3.20107 7.38462 3.83696 7.38462 4.5V5.33333H3.53846C3.13044 5.33333 2.73912 5.50893 2.4506 5.82149C2.16209 6.13405 2 6.55797 2 7V20.3333C2 20.7754 2.16209 21.1993 2.4506 21.5118C2.73912 21.8244 3.13044 22 3.53846 22H20.4615C20.8696 22 21.2609 21.8244 21.5494 21.5118C21.8379 21.1993 22 20.7754 22 20.3333V7C22 6.55797 21.8379 6.13405 21.5494 5.82149C21.2609 5.50893 20.8696 5.33333 20.4615 5.33333ZM8.92308 4.5C8.92308 4.27899 9.00412 4.06702 9.14838 3.91074C9.29264 3.75446 9.48829 3.66667 9.69231 3.66667H14.3077C14.5117 3.66667 14.7074 3.75446 14.8516 3.91074C14.9959 4.06702 15.0769 4.27899 15.0769 4.5V5.33333H8.92308V4.5ZM15.0769 7V20.3333H8.92308V7H15.0769ZM3.53846 7H7.38462V20.3333H3.53846V7ZM20.4615 20.3333H16.6154V7H20.4615V20.3333Z" fill="black"/>
</svg>
